<?xml version="1.0" standalone="no"?>
<!DOCTYPE svg PUBLIC "-//W3C//DTD SVG 20010904//EN"
 "http://www.w3.org/TR/2001/REC-SVG-20010904/DTD/svg10.dtd">
<svg version="1.0" xmlns="http://www.w3.org/2000/svg"
 width="1324.000000pt" height="1324.000000pt" viewBox="0 0 1324.000000 1324.000000"
 preserveAspectRatio="xMidYMid meet">
<metadata>
Created by potrace 1.11, written by Peter Selinger 2001-2013
</metadata>
<g transform="translate(0.000000,1324.000000) scale(0.100000,-0.100000)"
fill="#000000" stroke="none">
<path d="M6084 13014 c-93 -124 -177 -235 -186 -247 -26 -32 -22 -28 -167
-222 -74 -99 -137 -182 -140 -185 -3 -3 -10 -13 -16 -22 -5 -9 -286 -384 -623
-833 -337 -449 -615 -822 -618 -829 -4 -11 164 -13 958 -12 l963 1 0 1287 c0
709 -1 1288 -1 1288 -1 0 -77 -102 -170 -226z"/>
<path d="M6985 11951 l0 -1288 967 0 c820 -1 966 1 961 13 -3 8 -8 14 -12 14
-4 0 -14 12 -23 28 -9 15 -25 37 -35 49 -10 11 -24 29 -31 40 -11 15 -624 834
-689 919 -41 55 -464 619 -481 642 -9 13 -63 85 -120 160 -133 176 -129 171
-209 278 -37 51 -78 105 -90 120 -12 16 -65 88 -119 159 -53 72 -102 135 -108
142 -8 9 -11 -331 -11 -1276z"/>
<path d="M4343 9932 l-23 -3 0 -1470 0 -1469 23 0 c30 -1 1686 -1 1812 0 l100
0 0 1470 c0 974 -3 1470 -10 1471 -41 2 -1885 3 -1902 1z"/>
<path d="M7035 9932 l-50 -3 0 -1469 0 -1470 130 -1 c212 0 1768 -1 1788 0 16
1 17 76 15 1472 l-3 1471 -915 2 c-503 0 -938 0 -965 -2z"/>
<path d="M3470 9529 c-63 -84 -122 -163 -131 -174 -9 -11 -344 -456 -743 -990
-400 -533 -732 -977 -739 -985 -7 -8 -72 -96 -146 -195 -74 -99 -139 -183
-145 -187 -13 -9 -10 -9 1134 -9 l885 -1 3 670 c1 369 1 975 0 1348 l-3 678
-115 -155z"/>
<path d="M9650 8337 l0 -1347 33 0 c307 -5 1987 -3 1987 2 0 4 -37 56 -82 116
-46 59 -92 121 -103 136 -11 15 -66 89 -123 164 -133 176 -129 171 -209 278
-37 51 -78 105 -90 120 -12 16 -67 90 -123 164 -55 74 -106 142 -113 150 -7 8
-23 31 -37 50 -13 19 -29 40 -35 46 -5 6 -16 20 -23 30 -26 37 -1063 1419
-1073 1429 -5 5 -9 -498 -9 -1338z"/>
<path d="M1570 6252 c0 -4 1795 -2402 1843 -2462 7 -9 45 -60 86 -115 41 -55
78 -104 82 -109 5 -6 9 584 9 1340 l0 1351 -1010 0 c-555 0 -1010 -2 -1010 -5z"/>
<path d="M4320 4419 l0 -1839 963 -1284 c529 -707 964 -1285 967 -1285 3 -1 5
1404 5 3122 l0 3122 -968 1 -967 1 0 -1838z"/>
<path d="M6989 6251 c-4 -20 -3 -6241 1 -6241 3 0 25 29 50 63 25 34 50 69 57
77 7 8 36 47 65 86 29 39 80 107 113 150 33 43 70 94 82 112 13 18 28 38 34
45 10 11 207 274 382 507 39 52 156 210 261 350 105 140 194 260 198 265 4 6
20 26 35 45 15 19 39 51 53 70 13 19 28 40 33 45 13 15 302 401 356 474 25 35
51 69 56 75 6 6 43 55 83 108 l72 97 0 1839 0 1839 -965 0 c-531 0 -966 -3
-966 -6z"/>
<path d="M9650 4906 c0 -1343 0 -1350 20 -1326 15 20 413 551 478 638 9 13 62
83 117 156 55 73 109 145 120 160 11 16 38 52 60 80 22 28 72 94 110 146 39
52 74 100 78 105 8 9 429 571 472 629 11 15 65 87 120 160 55 73 109 145 120
161 11 15 31 42 45 59 14 17 36 47 50 66 13 19 28 40 32 45 13 16 91 118 113
149 11 15 34 46 52 69 17 23 30 44 28 47 -2 4 -457 7 -1010 7 l-1005 0 0
-1351z"/>
</g>
</svg>
