<?xml version="1.0" encoding="iso-8859-1"?>
<!-- Generator: Adobe Illustrator 19.1.0, SVG Export Plug-In . SVG Version: 6.00 Build 0)  -->
<svg xmlns="http://www.w3.org/2000/svg" xmlns:xlink="http://www.w3.org/1999/xlink" version="1.1" id="Capa_1" x="0px" y="0px" viewBox="0 0 488.6 488.6" style="enable-background:new 0 0 488.6 488.6;" xml:space="preserve" width="512px" height="512px">
<g>
	<g>
		<path d="M258.341,14.5c0-8-6.5-14.5-14.5-14.5s-14.5,6.5-14.5,14.5v21.2h29V14.5z" fill="#444444"/>
		<path d="M96.341,142.9c-1.4,2.2,0.2,5.2,2.8,5.2h257.8c4,0,7.7-2,9.9-5.4l24.5-38.3c2-3.1,2-7,0-10.1l-24.5-38.3    c-2.2-3.4-5.9-5.4-9.9-5.4h-257.8c-2.7,0-4.3,2.9-2.8,5.2l26.7,41.8c0.7,1.1,0.7,2.5,0,3.6L96.341,142.9z" fill="#444444"/>
		<path d="M392.341,202.4c1.4-2.2-0.2-5.2-2.8-5.2h-116.3v97.5h116.2c2.7,0,4.3-2.9,2.8-5.2l-26.7-41.8c-0.7-1.1-0.7-2.5,0-3.6    L392.341,202.4z" fill="#444444"/>
		<path d="M214.341,197.2h-82.7c-4,0-7.7,2-9.9,5.4l-24.5,38.3c-2,3.1-2,7,0,10.1l24.5,38.3c2.2,3.4,5.9,5.4,9.9,5.4h82.7V197.2z" fill="#444444"/>
		<path d="M289.641,438h-31.3V163h-29v275h-31.3c-10.9,0-19.7,8.8-19.7,19.7v30.9h131v-30.9C309.341,446.8,300.541,438,289.641,438z    " fill="#444444"/>
	</g>
</g>
<g>
</g>
<g>
</g>
<g>
</g>
<g>
</g>
<g>
</g>
<g>
</g>
<g>
</g>
<g>
</g>
<g>
</g>
<g>
</g>
<g>
</g>
<g>
</g>
<g>
</g>
<g>
</g>
<g>
</g>
</svg>
