<?xml version="1.0" encoding="iso-8859-1"?>
<!-- Generator: Adobe Illustrator 19.1.0, SVG Export Plug-In . SVG Version: 6.00 Build 0)  -->
<svg xmlns="http://www.w3.org/2000/svg" xmlns:xlink="http://www.w3.org/1999/xlink" version="1.1" id="Capa_1" x="0px" y="0px" viewBox="0 0 65.236 65.236" style="enable-background:new 0 0 65.236 65.236;" xml:space="preserve" width="512px" height="512px" >
<g>
	<g>
		<path stroke-width="100" d="M60.968,0L40.661,18.169L4.267,11.93l17.15,37.326c-3.657,0.195-6.449,2.309-6.449,4.98c0,2.804,3.075,5,7,5    c1.458,0,2.799-0.305,3.909-0.829c0.433,0.394,1.091,1.246,1.091,2.829c0,1.841-0.857,1.989-1,2v2c1.038,0,3-0.836,3-4    c0-1.952-0.729-3.212-1.409-3.966c0.884-0.837,1.409-1.883,1.409-3.034c0-0.514-0.105-1.007-0.298-1.471l32.298-9.787V0z     M16.969,54.236c0-1.626,2.29-3,5-3s5,1.374,5,3s-2.29,3-5,3S16.969,55.862,16.969,54.236z M58.968,41.494L27.41,51.057    c-0.933-0.819-2.231-1.41-3.73-1.671L7.67,14.542l33.606,5.762L58.968,4.472V41.494z" fill="#444444"/>
	</g>
</g>
<g>
</g>
<g>
</g>
<g>
</g>
<g>
</g>
<g>
</g>
<g>
</g>
<g>
</g>
<g>
</g>
<g>
</g>
<g>
</g>
<g>
</g>
<g>
</g>
<g>
</g>
<g>
</g>
<g>
</g>
</svg>
