<?xml version="1.0" encoding="utf-8"?>
<!-- Generator: Adobe Illustrator 19.0.1, SVG Export Plug-In . SVG Version: 6.00 Build 0)  -->
<svg version="1.1" id="Layer_1" xmlns="http://www.w3.org/2000/svg" xmlns:xlink="http://www.w3.org/1999/xlink" x="0px" y="0px"
	 viewBox="0 0 26.2 26.8" style="enable-background:new 0 0 26.2 26.8;" xml:space="preserve">
<style type="text/css">
	.st0{clip-path:url(#SVGID_2_);fill:#454545;}
</style>
<g>
	<g>
		<defs>
			<rect id="SVGID_1_" x="3" y="4.1" width="20" height="20"/>
		</defs>
		<clipPath id="SVGID_2_">
			<use xlink:href="#SVGID_1_"  style="overflow:visible;"/>
		</clipPath>
		<path class="st0" d="M21.3,6.2L21.3,6.2c0.3-0.1,0.5-0.4,0.5-0.7V4.9c0-0.5-0.4-0.8-1-0.8H5.3c-0.5,0-1,0.4-1,0.8v0.5
			c0,0.3,0.2,0.6,0.5,0.7h0L3,12.7h1.4v0.1c0,0,0,0,0,0v9.1h0v1.5h17.1v-3.8h0v-7h1.5L21.3,6.2z M14.7,6.3h1.1
			c0.3,0.1,0.5,0.4,0.5,0.7l0.3,5c-0.8,0-1.6,0-2.4-0.1l-0.1-5C14.2,6.7,14.4,6.4,14.7,6.3z M10.1,7c0-0.3,0.2-0.6,0.5-0.7h1.1
			C12,6.4,12.2,6.7,12.2,7l-0.1,5c-0.9,0-1.7,0-2.4,0L10.1,7z M6,7c0-0.3,0.2-0.6,0.5-0.7h1.1C8,6.4,8.2,6.7,8.2,7l-0.5,5.1
			c-1,0.1-1.8,0.1-2.4,0.2L6,7z M14.5,18H6.2v-4.1h8.4V18z M19.9,21h-3.2v-7.1h3.2V21z M18.8,12.1L18.2,7c0-0.3,0.2-0.6,0.5-0.7h1.1
			c0.3,0.1,0.5,0.4,0.5,0.7l0.8,5.2C20.4,12.2,19.6,12.1,18.8,12.1z"/>
		<path class="st0" d="M18.8,12.1"/>
	</g>
</g>
</svg>
