<svg xmlns="http://www.w3.org/2000/svg" viewBox="0 0 629.98 791.25"><defs><style>.cls-1{fill:#fff;}</style></defs><title>Asset 1</title><g id="Layer_2" data-name="Layer 2"><g id="Layer_1-2" data-name="Layer 1"><polygon class="cls-1" points="433.8 138.28 512.54 243.27 433.8 243.27 433.8 138.28"/><polygon class="cls-1" points="512.54 271.82 433.8 376.81 433.8 271.82 512.54 271.82"/><polygon class="cls-1" points="405.24 271.82 405.24 414.9 330.09 515.09 330.09 271.82 405.24 271.82"/><rect class="cls-1" x="330.09" y="128.77" width="75.15" height="114.5"/><polygon class="cls-1" points="405.24 100.19 405.24 100.22 330.09 100.22 330.09 0 405.24 100.19"/><polygon class="cls-1" points="301.54 271.82 301.54 515.09 226.36 414.87 226.36 271.82 301.54 271.82"/><rect class="cls-1" x="226.36" y="128.77" width="75.18" height="114.5"/><polygon class="cls-1" points="301.54 0 301.54 100.22 226.36 100.22 301.54 0"/><polygon class="cls-1" points="197.81 271.82 197.81 376.81 119.06 271.82 197.81 271.82"/><polygon class="cls-1" points="197.81 138.28 197.81 243.27 119.06 243.27 197.81 138.28"/><path class="cls-1" d="M140.57,582.53l-8.21,9.83c-3.56-4.33-8.75-7.12-13.47-7.12-8.36,0-14.71,6.58-14.71,15.25s6.35,15.41,14.71,15.41c4.49,0,9.68-2.48,13.47-6.35l8.28,8.9c-5.8,6.12-14.47,10.06-22.52,10.06-16.33,0-28.49-11.92-28.49-27.86,0-15.64,12.46-27.41,29-27.41A31.18,31.18,0,0,1,140.57,582.53Z"/><path class="cls-1" d="M202.49,600.72c0,15.87-12.54,27.79-29.34,27.79s-29.34-11.92-29.34-27.79,12.54-27.48,29.34-27.48S202.49,585,202.49,600.72Zm-44.12.08c0,8.83,6.89,15.64,14.94,15.64s14.63-6.81,14.63-15.64-6.51-15.48-14.63-15.48A15.12,15.12,0,0,0,158.37,600.8Z"/><path class="cls-1" d="M238.32,627.89h-14.7l-21.06-54.26h15.25l13.55,39.25L245,573.63h14.55Z"/><path class="cls-1" d="M307.45,584.93H278.81v10.14h25.85v11.3H278.81v10.22h29.41v11.3H264.64V573.63h42.81Z"/><path class="cls-1" d="M367.12,627.89H354.74l-24.62-32.51v32.51H316.89V573.63h12.46L354,606.3V573.63h13.16Z"/><path class="cls-1" d="M413.87,618.3H390.42l-3.79,9.59H372.07l23.3-54.26h14.56l22.75,54.26H417.59Zm-4.18-10.84-7.43-19.35-7.58,19.35Z"/><path class="cls-1" d="M487.79,627.89H475.41l-24.62-32.51v32.51H437.56V573.63H450l24.61,32.67V573.63h13.16Z"/><path class="cls-1" d="M541.75,585.32H525.49v42.57H511.32V585.32h-16.1V573.63h46.53Z"/><path class="cls-1" d="M45.67,674.16c0,12.77-8,20.2-21.83,20.2H14.17v15H0V655.11H23.84C37.7,655.11,45.67,662.08,45.67,674.16Zm-31.5-7.74v16.64h9c5.73,0,9.06-2.94,9.06-8.44,0-5.34-3.33-8.2-9.06-8.2Z"/><path class="cls-1" d="M86.77,709.38l-7.89-15.1c-.08.08-.16.08-.31.08H68.35v15H54.18V655.11H78.57c14.39,0,22.6,7,22.6,19,0,8.28-3.41,14.24-9.68,17.41l11.3,17.81Zm-8.13-26.32c5.73,0,9.06-2.94,9.06-8.44,0-5.34-3.33-8.2-9.06-8.2H68.35v16.64Z"/><path class="cls-1" d="M154.58,666.42H125.94v10.14h25.85v11.3H125.94v10.22h29.41v11.3H111.77V655.11h42.81Z"/><path class="cls-1" d="M206.75,660.61l-5.35,11.22c-5.72-3.25-13-5.8-17.49-5.8-3.41,0-5.65,1.24-5.65,3.71,0,9,28.56,3.87,28.56,23.38,0,11.07-9.75,16.72-21.83,16.72a40.78,40.78,0,0,1-25-8.67l5.5-11.07c5.57,4.8,14,8.21,19.66,8.21,4.18,0,6.81-1.55,6.81-4.41,0-9.22-28.56-3.64-28.56-22.84,0-10.14,8.59-16.56,21.67-16.56A41.66,41.66,0,0,1,206.75,660.61Z"/><path class="cls-1" d="M259.92,668.82c0,5.65-3.64,10.21-9.37,11.76a13.41,13.41,0,0,1,11.15,13.7c0,9.29-8.13,15.1-20.9,15.1H214V655.11H239.8C252.1,655.11,259.92,660.46,259.92,668.82Zm-31.81-2.64v10.53H239c3.87,0,6.35-2,6.35-5.42,0-3.25-2.48-5.11-6.35-5.11Zm0,20.75v11.46H239c5,0,8-2.17,8-5.89,0-3.4-3.09-5.57-8-5.57Z"/><path class="cls-1" d="M299.47,692v17.34H285.31v-17l-20-37.32H279.5l12.85,23.3,12.54-23.3h14.17Z"/><path class="cls-1" d="M371.92,666.8H355.67v42.58H341.5V666.8H325.4V655.11h46.52Z"/><path class="cls-1" d="M423.55,666.42H394.91v10.14h25.85v11.3H394.91v10.22h29.42v11.3H380.74V655.11h42.81Z"/><path class="cls-1" d="M467.13,709.38l-7.9-15.1c-.08.08-.15.08-.31.08H448.7v15H434.54V655.11h24.38c14.4,0,22.6,7,22.6,19,0,8.28-3.4,14.24-9.67,17.41l11.3,17.81ZM459,683.06c5.73,0,9.06-2.94,9.06-8.44,0-5.34-3.33-8.2-9.06-8.2H448.7v16.64Z"/><path class="cls-1" d="M506.29,709.38H492.13V655.11h14.16Z"/><path class="cls-1" d="M554.51,699.78H531.06l-3.79,9.6H512.71L536,655.11h14.56l22.76,54.27h-15.1Zm-4.18-10.84-7.43-19.35-7.58,19.35Z"/><path class="cls-1" d="M630,709.38H617.6L593,676.87v32.51H579.75V655.11h12.46l24.61,32.67V655.11H630Z"/><path class="cls-1" d="M192.46,744.8l-5.34,6.66A21.12,21.12,0,0,0,172,744.57a19.08,19.08,0,1,0,0,38.16,22.37,22.37,0,0,0,15.09-6.42l5.42,6a30.73,30.73,0,0,1-21,8.9c-15.87,0-28.18-12-28.18-27.56,0-15.4,12.46-27.25,28.49-27.25A29.91,29.91,0,0,1,192.46,744.8Z"/><path class="cls-1" d="M250.36,790.86h-9.13V768.41H212.51v22.45h-9.13V736.68h9.13v23.53h28.72V736.68h9.13Z"/><path class="cls-1" d="M310.66,768.41c0,14.17-8.9,22.84-23.53,22.84s-23.61-8.67-23.61-22.84V736.68h9.13v31.73c0,9.14,5.65,14.63,14.55,14.63s14.32-5.41,14.32-14.63V736.68h9.14Z"/><path class="cls-1" d="M358.11,790.86l-9.91-16.41c-.78.08-1.63.08-2.48.08H332.87v16.33h-9.13V736.68h22c13.86,0,21.83,6.73,21.83,18.5,0,8.67-3.95,14.7-11.22,17.57l12.15,18.11Zm-12.39-24.54c8.36,0,13.16-3.56,13.16-10.91,0-7.12-4.8-10.53-13.16-10.53H332.87v21.44Z"/><path class="cls-1" d="M424.29,744.8l-5.35,6.66a21.12,21.12,0,0,0-15.09-6.89,19.08,19.08,0,1,0,0,38.16,22.37,22.37,0,0,0,15.09-6.42l5.42,6a30.73,30.73,0,0,1-21,8.9c-15.87,0-28.18-12-28.18-27.56,0-15.4,12.46-27.25,28.49-27.25A30,30,0,0,1,424.29,744.8Z"/><path class="cls-1" d="M482.18,790.86h-9.13V768.41H444.33v22.45H435.2V736.68h9.13v23.53h28.72V736.68h9.13Z"/></g></g></svg>