<svg xmlns="http://www.w3.org/2000/svg" viewBox="0 0 56.7 56.7">
  <path d="M28.35,13.6A14.64,14.64,0,1,0,43,28.24,14.66,14.66,0,0,0,28.35,13.6Zm0,24a9.38,9.38,0,1,1,9.37-9.37A9.42,9.42,0,0,1,28.35,37.61Z"/>
  <circle cx="43.55" cy="13.26" r="3.32"/>
  <path d="M52.13,4.69A16.27,16.27,0,0,0,40.12,0H16.58C6.63,0,0,6.63,0,16.58V40A16.43,16.43,0,0,0,4.8,52.24,16.7,16.7,0,0,0,16.69,56.7H40a16.85,16.85,0,0,0,12-4.46c3.09-3,4.69-7.2,4.69-12.12V16.58A16.38,16.38,0,0,0,52.13,4.69Zm-.69,35.43c0,3.55-1,6.41-3.08,8.35a11.85,11.85,0,0,1-8.35,3H16.69a11.85,11.85,0,0,1-8.35-3A11.53,11.53,0,0,1,5.26,40V16.58A11.44,11.44,0,0,1,8.34,8.23a11.66,11.66,0,0,1,8.35-3H40.24a11.4,11.4,0,0,1,8.34,3.08,11.79,11.79,0,0,1,3.09,8.24V40.12Z"/>
</svg>