<svg width="11" height="16" viewBox="0 0 11 16" fill="none" xmlns="http://www.w3.org/2000/svg">
<path d="M5.5 0C2.45929 0 0 2.504 0 5.6C0 9.8 5.5 16 5.5 16C5.5 16 11 9.8 11 5.6C11 2.504 8.54071 0 5.5 0ZM1.57143 5.6C1.57143 3.392 3.33143 1.6 5.5 1.6C7.66857 1.6 9.42857 3.392 9.42857 5.6C9.42857 7.904 7.16571 11.352 5.5 13.504C3.86571 11.368 1.57143 7.88 1.57143 5.6Z" fill="#5BA5BF"/>
<path d="M5.50335 7.60004C6.58819 7.60004 7.46763 6.70461 7.46763 5.60004C7.46763 4.49547 6.58819 3.60004 5.50335 3.60004C4.4185 3.60004 3.53906 4.49547 3.53906 5.60004C3.53906 6.70461 4.4185 7.60004 5.50335 7.60004Z" fill="#5BA5BF"/>
</svg>
