<svg xmlns="http://www.w3.org/2000/svg" viewBox="0 0 1853.37 998.6"><defs><style>.cls-1{fill:#095169;}.cls-2{fill:#059b9a;}</style></defs><title>sc-logo</title><g id="Layer_2" data-name="Layer 2"><g id="Layer_1-2" data-name="Layer 1"><path class="cls-1" d="M1184.43,485.83c6.79-10,9.15-23.6,9.15-38.06,0-11.8-3.83-23-9.44-33.94s-13-22.13-20.36-33c-6.2-9.16-12.39-17.72-17.12-26s-8-15.93-8-23.31c0-12.69,2.66-21.25,10.92-21.54,5,0,8.27,4.13,10.33,10,2.07,6.19,2.36,14.16,2.36,21.23l31.28-2.94c0-12.1-1.76-26.56-8-38.36-6.19-11.51-17.41-19.48-36.59-19.19-15,.3-25.38,7.09-32.16,16.53-6.79,9.74-9.45,22.43-9.45,34.23a58,58,0,0,0,2.66,17.41,123.9,123.9,0,0,0,15.64,33.64c7.08,10.92,13.87,20.95,20.07,29.8,3,4.43,5.61,8.86,8.26,13,4.72,8.56,8.26,16.82,8.26,23.9,0,13.87-3.54,23.9-13,23.9-6.79,0-10.33-4.72-12.4-11.8-2.36-6.79-2.65-15.93-2.65-25.08L1103,439.21c0,16.23,1.47,31.87,8,43.67s18,19.48,38.36,19.48c17.41,0,28.32-6.49,35.11-16.53"/><path class="cls-1" d="M1316.33,348c0-24.78-7.08-41.3-17.7-51.34s-24.49-13.58-38.37-13.58H1228.4V500h31.86V413.24c13.88,0,27.74-4.13,38.37-14.17s17.7-26.26,17.7-51.05m-36.59,26c-3.54,5-9.73,6.78-19.48,6.78V315.57c9.75,0,15.94,2.35,19.48,7.67s4.43,13.87,4.43,26-.89,20.07-4.43,24.8"/><polygon class="cls-1" points="1422.86 315.86 1422.86 283.1 1349.97 283.1 1349.97 500 1422.86 500 1422.86 467.24 1381.84 467.24 1381.84 407.63 1411.35 407.63 1411.35 372.81 1381.84 372.81 1381.84 315.86 1422.86 315.86"/><path class="cls-1" d="M1523.18,288.12c-5.9-4.42-13.87-7.38-24.49-7.38s-18.89,3-24.79,7.38a40.73,40.73,0,0,0-12.4,16.23,59,59,0,0,0-5.31,23.31V455.44a59.31,59.31,0,0,0,5.31,23.61A39.81,39.81,0,0,0,1473.9,495c5.9,4.72,14.16,7.38,24.79,7.38s18.59-2.66,24.49-7.38a40.61,40.61,0,0,0,12.69-15.93,59,59,0,0,0,5.31-23.61v-29.8h-29.81v29.8a20.79,20.79,0,0,1-1.17,8c-1.48,4.42-4.13,8-10.92,8a8.45,8.45,0,0,1-6.2-2.37c-2.95-3.24-4.72-7.37-5-13.57V327.66a31.83,31.83,0,0,1,1.48-8c1.47-3.84,4.13-8,9.74-8,3.25,0,5.9.88,7.38,2.36,3.24,3.54,4.71,7.67,4.71,13.57v29.81h29.81V327.66a58.65,58.65,0,0,0-5.31-23.31,41.53,41.53,0,0,0-12.69-16.23"/><rect class="cls-1" x="1578.06" y="283.11" width="31.87" height="216.89"/><path class="cls-1" d="M1715.86,500h31l-32.76-216.9h-38.95L1642.38,500h31l5.9-44.27H1710Zm-32.16-77.91,9.14-68.45.89-5.62h1.77l.88,5.62,9.15,68.45Z"/><polygon class="cls-1" points="1779.3 283.1 1779.3 500 1853.37 500 1853.37 470.49 1811.16 470.49 1811.16 283.1 1779.3 283.1"/><path class="cls-1" d="M1170,590.88c-5.9-4.42-13.87-7.38-24.49-7.38s-18.89,3-24.79,7.38a40.57,40.57,0,0,0-12.4,16.23,59,59,0,0,0-5.31,23.31V758.2a59.31,59.31,0,0,0,5.31,23.61,39.79,39.79,0,0,0,12.4,15.93c5.9,4.72,14.16,7.38,24.79,7.38s18.59-2.66,24.49-7.38a40.68,40.68,0,0,0,12.69-15.93A59.31,59.31,0,0,0,1188,758.2V728.4h-29.81v29.8a20.59,20.59,0,0,1-1.18,8c-1.47,4.42-4.13,8-10.91,8a8.44,8.44,0,0,1-6.2-2.36c-3-3.24-4.72-7.37-5-13.57V630.42a32,32,0,0,1,1.48-8c1.47-3.83,4.13-8,9.74-8,3.24,0,5.9.89,7.37,2.37,3.25,3.54,4.72,7.67,4.72,13.57v29.81H1188V630.42a59,59,0,0,0-5.31-23.31A41.46,41.46,0,0,0,1170,590.88"/><path class="cls-1" d="M1248.76,585.86,1216,802.76h31l5.9-44.27h30.69l5.9,44.27h31l-32.76-216.9Zm8.56,139,9.15-68.46.88-5.61h1.77l.89,5.61,9.15,68.46Z"/><polygon class="cls-1" points="1414.3 685.02 1412.83 696.52 1412.24 696.52 1410.77 685.02 1391.88 585.86 1352.92 585.86 1352.92 802.76 1382.44 802.76 1382.44 657.27 1384.2 657.27 1385.38 666.42 1405.75 802.76 1419.32 802.76 1439.68 666.42 1440.86 657.27 1442.63 657.27 1442.63 802.76 1472.14 802.76 1472.14 585.86 1433.19 585.86 1414.3 685.02"/><path class="cls-1" d="M1545.32,585.86h-31.87v216.9h31.87V716c13.87,0,27.73-4.13,38.36-14.17s17.7-26.26,17.7-51.05-7.08-41.3-17.7-51.34-24.49-13.58-38.36-13.58m19.47,90.9c-3.54,5-9.73,6.78-19.47,6.78V618.32c9.74,0,15.93,2.36,19.47,7.68s4.43,13.87,4.43,26-.89,20.07-4.43,24.8"/><path class="cls-1" d="M1675.15,612.72c5,0,8.26,4.13,10.32,10,2.07,6.2,2.36,14.17,2.36,21.25l31.28-3c0-12.09-1.77-26.55-8-38.36-6.2-11.51-17.42-19.47-36.59-19.18-15,.3-25.38,7.09-32.17,16.53-6.79,9.74-9.44,22.43-9.44,34.23a58.29,58.29,0,0,0,2.65,17.41,123.64,123.64,0,0,0,15.65,33.64c7.08,10.92,13.86,21,20.06,29.81,3,4.42,5.61,8.85,8.27,13,4.71,8.56,8.25,16.82,8.25,23.9,0,13.87-3.54,23.9-13,23.9-6.79,0-10.32-4.72-12.39-11.8-2.36-6.79-2.66-15.93-2.66-25.08l-31.28,3c0,16.23,1.48,31.87,8,43.67s18,19.48,38.36,19.48c17.41,0,28.33-6.5,35.12-16.53s9.14-23.6,9.14-38.07c0-11.79-3.84-23-9.44-33.93s-13-22.13-20.36-33.05c-6.2-9.15-12.39-17.7-17.12-26s-8-15.93-8-23.31c0-12.69,2.65-21.25,10.92-21.54"/><path class="cls-2" d="M998.6,499.3C998.6,224,774.64,0,499.3,0S0,224,0,499.3C0,735.88,165.4,934.54,386.62,985.78a496.83,496.83,0,0,0,110.9,12.78c.59,0,1.19,0,1.78,0s1.19,0,1.78,0A496.83,496.83,0,0,0,612,985.78C833.2,934.54,998.6,735.88,998.6,499.3M611.94,959.67c1.52-116.06,24.8-169,39.06-180,17.51-13.49,88.38-15.32,113.22-26.44S797.4,725.08,807.05,710c4.94-7.7,22.42-40.11,32.32-56,7.28-11.59,10.46-34.57,14-58.94,2-13.63,5.54-39.22-7.78-41.43-10.46-1.73-20.15,9.18-36.65,56.87-4.44,12.86-12.27,27-14.68,31.31a19,19,0,0,1,7.7,10.62c7.24,25-27.93,36.78-58.94,47.1-8.68,2.88-16.84,5.62-23.19,8.38-16.55,7.07-26.19,14.68-30.8,19-2.08,1.94-4.7,2.58-7,.88a3.51,3.51,0,0,1-1.48-2.49c-.67-4.32,8.47-13.2,36-25s84.17-22.6,77.48-45.66c-1.31-4.49-4.57-7-9.14-8.21,0,0,0,0,0,0-20.44-5.25-66.94,17.1-81.07,19.93-17.31,3.51-51.42-2-92,15.65s-53,60.3-60.22,78.07c-6.22,15.53-42.19,109.63-52,213.05h-.76c-9.77-103.42-45.7-197.52-52-213.05-7.19-17.77-19.6-60.38-60.21-78.07S312,670,294.72,666.44c-14.14-2.83-60.64-25.18-81.08-19.93,0,0,0,0,0,0-4.57,1.19-7.83,3.72-9.14,8.21-6.69,23.06,49.93,33.85,77.48,45.66s36.73,20.64,36.05,25a3.51,3.51,0,0,1-1.48,2.49c-2.29,1.7-4.91,1.06-7-.88-4.61-4.36-14.26-12-30.8-19-6.35-2.76-14.51-5.5-23.19-8.38-31-10.32-66.18-22.05-58.94-47.1a19.09,19.09,0,0,1,7.7-10.62c-2.41-4.27-10.24-18.45-14.68-31.31-16.51-47.69-26.2-58.6-36.65-56.87-13.33,2.21-9.81,27.8-7.78,41.43,3.59,24.37,6.77,47.35,14,58.94,9.91,15.87,27.38,48.28,32.33,56,9.65,15.06,18,32.08,42.83,43.25s95.71,13,113.22,26.44c14.27,11,37.54,63.9,39.06,180C179.54,909,25.39,721.78,25.39,499.3,25.39,238,238,25.39,499.3,25.39S973.21,238,973.21,499.3c0,222.48-154.15,409.68-361.27,460.37"/><path class="cls-2" d="M591.38,573.37c-1.07.21-106.52,21.93-116.48,148.79a5.12,5.12,0,0,0,2,4.45,5.07,5.07,0,0,0,3.13,1.07,5.15,5.15,0,0,0,1.68-.28c1.05-.36,105.59-37.8,115.76-148.53a5.12,5.12,0,0,0-6.07-5.5"/><path class="cls-2" d="M702,517.35c.79-.47,79.2-48,69.19-139.24a4.23,4.23,0,0,0-5.82-3.45c-.85.36-21.07,8.84-39.86,30.34-17.32,19.81-36.56,54.84-29.86,109.22a4.24,4.24,0,0,0,6.35,3.13"/><path class="cls-2" d="M484.08,566.51a4.22,4.22,0,0,0,4.22,4.56,4.39,4.39,0,0,0,1.38-.23c.88-.31,87.19-31.21,95.58-122.64a4.23,4.23,0,0,0-5-4.54c-.91.18-22.41,4.46-45.12,21.78-20.92,15.95-46.76,46.44-51.05,101.07"/><path class="cls-2" d="M498.18,428.35a3.44,3.44,0,0,0,4.7,3.32c.7-.28,69.63-28.37,73.23-102.83a3.42,3.42,0,0,0-4.22-3.51c-.71.17-70.71,17.77-73.71,103"/><path class="cls-2" d="M643.68,310.55a3.44,3.44,0,0,0-2.15-2.19,3.39,3.39,0,0,0-3,.41c-.6.41-59.83,41.66-32.44,122.45a3.42,3.42,0,0,0,2.39,2.22,3.22,3.22,0,0,0,.86.11,3.45,3.45,0,0,0,2.32-.89c.55-.5,55.07-51.2,32.06-122.11"/><path class="cls-2" d="M386.24,349.49c-.7.17-70.7,17.77-73.7,103a3.43,3.43,0,0,0,1.45,2.93,3.45,3.45,0,0,0,3.25.39c.69-.28,69.63-28.38,73.23-102.84a3.43,3.43,0,0,0-4.23-3.5"/><path class="cls-2" d="M324.61,300.93a2.53,2.53,0,0,0-1.54-1.65,2.46,2.46,0,0,0-2.25.23c-.47.29-11.52,7.42-20.36,22.07-8.16,13.5-15.85,36.19-6.22,67.59a2.54,2.54,0,0,0,4.08,1.18c.42-.36,41.74-36.6,26.29-89.42"/><path class="cls-2" d="M486.51,359.35a2.46,2.46,0,0,0,1.48.47,2.57,2.57,0,0,0,.91-.16,2.51,2.51,0,0,0,1.56-1.84c.12-.54,11.06-54.4-33.22-87.07a2.54,2.54,0,0,0-3.89,1.16c-.19.51-4.66,12.87-2.83,29.89,1.69,15.68,9.31,38.4,36,57.55"/><path class="cls-2" d="M706.87,377.3c10.9-11.39,23.36-31.85,20.82-64.6a2.57,2.57,0,0,0-1.31-2,2.51,2.51,0,0,0-2.41,0c-.49.26-48.72,26.6-45.18,81.52a2.54,2.54,0,0,0,1.14,2,2.59,2.59,0,0,0,1.39.41,2.55,2.55,0,0,0,.86-.15c.52-.19,12.86-4.73,24.69-17.1"/><path class="cls-2" d="M832.36,412.79c-.43.1-43.56,10.3-46.15,62.61a2.11,2.11,0,0,0,2.11,2.21,2,2,0,0,0,.75-.14c.43-.16,43-16.8,45.86-62.49a2.12,2.12,0,0,0-2.57-2.19"/><path class="cls-2" d="M509.89,328.07a2.11,2.11,0,0,0,2.11,2.22,2.15,2.15,0,0,0,.74-.14c.43-.17,43-16.81,45.86-62.5a2.11,2.11,0,0,0-.73-1.73,2.17,2.17,0,0,0-1.83-.46c-.44.1-43.57,10.3-46.15,62.61"/><path class="cls-2" d="M795.82,501.81c-.91.18-22.41,4.46-45.12,21.77-20.92,16-46.76,46.45-51.05,101.07a4.22,4.22,0,0,0,4.22,4.56,4.12,4.12,0,0,0,1.38-.23c.87-.29,87.19-31.21,95.58-122.63a4.23,4.23,0,0,0-5-4.54"/><path class="cls-2" d="M395.33,503.74a4.22,4.22,0,0,0-6.31,2.43c-.25.88-6.11,22-.88,50.08,4.82,25.87,20.4,62.68,67.24,91.11a4.2,4.2,0,0,0,2.19.62,4.12,4.12,0,0,0,1.82-.42,4.23,4.23,0,0,0,2.38-3.25c.12-.91,11.41-91.89-66.44-140.57"/><path class="cls-2" d="M227.71,351.52a4.21,4.21,0,0,0-3.73-.62,4.26,4.26,0,0,0-2.74,2.61c-.3.87-7.58,21.55-4.27,49.92,3.06,26.13,16.11,63.9,60.92,95.44a4.2,4.2,0,0,0,2.43.77,4.5,4.5,0,0,0,1.57-.29,4.26,4.26,0,0,0,2.58-3.09c.18-.9,17.61-90.91-56.76-144.74"/><path class="cls-2" d="M202.58,496.23a4.22,4.22,0,0,0-6.09,2.94c-.18.9-4.3,22.43,3.2,50,6.91,25.39,25.44,60.8,74.44,85.32a4.17,4.17,0,0,0,1.89.45,4.28,4.28,0,0,0,2.13-.57,4.23,4.23,0,0,0,2.09-3.44c.05-.92,3.89-92.52-77.66-134.69"/><path class="cls-2" d="M435.84,352.5a4.22,4.22,0,0,0-6.7.9c-.45.8-11.05,20-12.47,48.52C415.36,428.2,422,467.61,461,506.13a4.23,4.23,0,0,0,3,1.22,3.8,3.8,0,0,0,.89-.1,4.18,4.18,0,0,0,3.06-2.61c.33-.86,32.4-86.74-32-152.14"/><path class="cls-2" d="M629.41,455a4.19,4.19,0,0,0-3.12,2.12c-.45.8-11,20-12.48,48.52-1.3,26.28,5.32,65.69,44.29,104.2a4.19,4.19,0,0,0,3,1.23,3.8,3.8,0,0,0,.89-.1,4.2,4.2,0,0,0,3.06-2.61c.33-.86,32.4-86.75-32-152.14a4.24,4.24,0,0,0-3.58-1.22"/><path class="cls-2" d="M347.52,476a3.7,3.7,0,0,0-3.24.49c-.65.45-16.11,11.46-27.9,33.19-10.87,20-20.46,53.25-4.48,97.9a3.64,3.64,0,0,0,2.59,2.33,4.12,4.12,0,0,0,.86.1,3.66,3.66,0,0,0,2.51-1c.58-.54,57.78-55.55,32-130.71a3.68,3.68,0,0,0-2.33-2.3"/><path class="cls-2" d="M408.54,117.47a12.33,12.33,0,1,0-12.33-12.33,12.34,12.34,0,0,0,12.33,12.33"/><path class="cls-2" d="M153.46,277.42a12.33,12.33,0,1,0,12.32,12.33,12.34,12.34,0,0,0-12.32-12.33"/><path class="cls-2" d="M80.52,503.09a12.33,12.33,0,1,0,12.33,12.34,12.35,12.35,0,0,0-12.33-12.34"/><path class="cls-2" d="M651.67,117.47a12.33,12.33,0,1,0-12.33-12.33,12.34,12.34,0,0,0,12.33,12.33"/><path class="cls-2" d="M788.32,302.08A12.33,12.33,0,1,0,776,289.75a12.34,12.34,0,0,0,12.32,12.33"/><path class="cls-2" d="M763,180a8.1,8.1,0,1,0-8.09-8.1A8.1,8.1,0,0,0,763,180"/><path class="cls-2" d="M909.55,454.47a8.1,8.1,0,1,0,8.1,8.1,8.1,8.1,0,0,0-8.1-8.1"/><path class="cls-2" d="M229.66,272.79a8.1,8.1,0,1,0,8.1-8.1,8.1,8.1,0,0,0-8.1,8.1"/><path class="cls-2" d="M904,357.29a1.36,1.36,0,0,0-1-1.3l-21.84-6.57a1.06,1.06,0,0,1-.72-.72l-6.57-21.83a1.4,1.4,0,0,0-2.59,0l-6.57,21.83a1.06,1.06,0,0,1-.72.72L842.19,356a1.36,1.36,0,0,0,0,2.6L864,365.15a1.1,1.1,0,0,1,.72.72l6.57,21.84a1.35,1.35,0,0,0,2.59,0l6.57-21.83a1.1,1.1,0,0,1,.72-.73L903,358.59a1.36,1.36,0,0,0,1-1.3"/><path class="cls-2" d="M224.34,181.31l21.84,6.56a1.08,1.08,0,0,1,.72.72l6.57,21.84a1.35,1.35,0,0,0,2.59,0l6.57-21.83a1.1,1.1,0,0,1,.72-.73l21.84-6.56a1.37,1.37,0,0,0,1-1.3,1.35,1.35,0,0,0-1-1.3l-21.83-6.56a1.11,1.11,0,0,1-.73-.73l-6.57-21.84a1.41,1.41,0,0,0-2.59,0l-6.57,21.84a1.1,1.1,0,0,1-.72.73l-21.84,6.56a1.35,1.35,0,0,0-1,1.3,1.37,1.37,0,0,0,1,1.3"/><path class="cls-2" d="M164.44,393.85l-21.83-6.57a1.06,1.06,0,0,1-.72-.72l-6.57-21.84a1.35,1.35,0,0,0-2.59,0l-6.57,21.83a1.1,1.1,0,0,1-.72.73l-21.84,6.57a1.35,1.35,0,0,0,0,2.59L125.43,403a1.08,1.08,0,0,1,.73.72l6.57,21.84a1.35,1.35,0,0,0,2.59,0l6.57-21.84a1,1,0,0,1,.72-.72l21.83-6.57a1.35,1.35,0,0,0,0-2.59"/><path class="cls-2" d="M329.37,204.21l34,10.24a1.7,1.7,0,0,1,1.13,1.13l10.23,34a2.11,2.11,0,0,0,4,0l10.24-34a1.7,1.7,0,0,1,1.13-1.13l34-10.24a2.11,2.11,0,0,0,0-4l-34-10.24a1.7,1.7,0,0,1-1.12-1.12l-10.24-34a2.2,2.2,0,0,0-4,0l-10.23,34a1.72,1.72,0,0,1-1.13,1.13l-34,10.23a2.11,2.11,0,0,0,0,4"/><path class="cls-2" d="M688.87,244.48l34-10.24a2.09,2.09,0,0,0,1.51-2,2.11,2.11,0,0,0-1.51-2l-34-10.24a1.69,1.69,0,0,1-1.13-1.12l-10.23-34a2.2,2.2,0,0,0-4,0l-10.24,34A1.67,1.67,0,0,1,662.1,220l-34,10.23a2.11,2.11,0,0,0-1.51,2,2.09,2.09,0,0,0,1.51,2l34,10.24a1.7,1.7,0,0,1,1.13,1.13l10.24,34a2.11,2.11,0,0,0,4,0l10.23-34a1.72,1.72,0,0,1,1.13-1.13"/><path class="cls-2" d="M454.21,127.37l34,10.24a1.68,1.68,0,0,1,1.13,1.13l10.24,34a2.11,2.11,0,0,0,4,0l10.23-34a1.72,1.72,0,0,1,1.13-1.14l34-10.24a2.1,2.1,0,0,0,0-4l-34-10.25a1.67,1.67,0,0,1-1.13-1.12l-10.23-34a2.2,2.2,0,0,0-4,0l-10.24,34a1.67,1.67,0,0,1-1.13,1.12l-34,10.24a2.1,2.1,0,0,0,0,4"/></g></g></svg>