<svg xmlns="http://www.w3.org/2000/svg" viewBox="0 0 1709.51 292.57">
  <defs>
    <style>.cls-1{fill:#f6bb3d;}.cls-2{fill:#1d4b58;}.cls-3{fill:#e86859;}.cls-4{fill:#57bcc2;}</style>
  </defs>
  <path class="cls-1" d="M679,138c-.25-7.56-.62-15.11-1.2-22.65-.53-7-.58-15.83-4.5-21.89-3.21-5-13.44-5.74-18.55-5.65a50.18,50.18,0,0,0-9.7,1c-2,.44-9.07,1.5-9.73,4.47-1.59,7.18-.6,14.81-.35,22,.25,7.55.3,15.1.22,22.65-.15,15.84-.82,31.69-1.33,47.53-.08,2.61-.17,5.22-.25,7.83a1.43,1.43,0,0,1-2.75.52c-16.28-38.08-33.08-75.94-50.12-113.67q-6.16-13.67-12.38-27.31c-4-8.78-7.93-19.17-14-26.68-4.54-5.57-14.57-5.83-21-5.48-3,.16-12.19.52-17.85,3-3.39,1.82-3.38,4.37-3.87,7.44-1.62,10.12-.07,21.17.21,31.39.29,10.48.92,20.94,1.45,31.41,1,20.94,1.82,41.9,2.61,62.85s1.42,41.93,1.84,62.91q.33,15.72.5,31.46c.06,5.24.1,10.49.18,15.73.1,5.51-.6,11.09,2.43,15.94,3.3,5.3,14.38,6.1,19.72,6,5.72-.11,16.26-.42,19.72-6,3-4.86,2.28-10.43,2.31-15.94,0-5.24,0-10.49-.07-15.73q-.13-15.74-.43-31.46-.57-31.47-1.7-62.91-.27-7.28-.61-14.55a1,1,0,0,1,2-.44q17.08,41.27,35.06,82.13c8,18.22,16.15,36.28,24.82,54.17,1.42,2.92,7.5,4.61,10.06,5.24,5.25,1.27,17.13,1.08,20.35.92,2.46-.19,17.31-1.27,21.68-6.39,2.59-3,2.29-6.92,2.43-10.71.13-3.55.3-7.1.35-10.65.12-7.81.36-15.61.66-23.41.6-15.86,1.33-31.72,1.8-47.59s.54-31.68,0-47.53"/>
  <path class="cls-2" d="M170.45,29.15c-12.93-8.23-28.18-12-43.22-13.93a162.93,162.93,0,0,0-44.17.25A148.23,148.23,0,0,0,45.71,25.65,1.21,1.21,0,0,1,44,24.56c-.11-4.92-.25-9.83-.46-14.75C43.28,3,29.33,2.18,24.69,2.27,19.43,2.36,7,2.77,5.82,9.81-.27,45.15-.52,81.63.39,117.4q1.36,53.32,7.55,106.37a564.15,564.15,0,0,0,10,60.47c1.75,7.6,14.6,8.43,20.81,8.33,4.93-.09,10.1-.52,14.7-2.44,2.22-.93,6.42-2.89,6.1-5.89-3.85-35.63-9.07-71-11.81-106.8q-1.17-15.24-1.94-30.51a1.79,1.79,0,0,1,2-1.87c14.14,1.79,28.5,1.55,42.72.41a193.83,193.83,0,0,0,44.36-8.7c23.83-7.75,45.94-23,54.37-47.42,7.78-22.6,2.09-46.89-18.82-60.2m-68.16,79.06c-11,1.62-22.42,3-33.6,3.13-8.37.07-18.28-.74-24.25-7.41,0-.05-.15-.12-.14-.26-.2-11-.26-21.85-.18-32.82V70.4a4.75,4.75,0,0,1,2.62-4.23q5-2.48,10.12-4.63A166.31,166.31,0,0,1,94.53,50.63c13-2.14,26.85-3.35,39.77-.41a40.07,40.07,0,0,1,9.07,3.26,14.28,14.28,0,0,1,7.7,10.44,51.09,51.09,0,0,1-.75,18.49,19.9,19.9,0,0,1-2.44,6.17,26.41,26.41,0,0,1-12,10.41c-10.7,4.86-22.59,7.61-33.6,9.22"/>
  <path class="cls-1" d="M266.56,281.52c-1.68-11.88-7.25-23.58-11.12-34.91-3.95-11.53-7.64-23.14-11.56-34.68q-5.69-16.69-11-33.5c-3.84-12-6.76-24.76-11.87-36.31-1.16-2.62-6.07-5-8.29-5.44A78,78,0,0,0,198,135c-13.2-.12-20.26,1.22-23.68,4.36-9.4,8.62-16.22,20.59-22.92,31.5-7,11.33-13.66,22.83-19.9,34.57q-10,18.84-19.16,38.11c-5.77,12.16-12.5,24.38-16.39,37.28-.74,2.45,4.46,5,5.7,5.5a36.21,36.21,0,0,0,11.18,2.14c6.08.33,17.47.32,21.36-5.57,5.87-8.88,10.37-18.82,15-28.51a6,6,0,0,1,4.37-3.3c9.48-1.68,18.88-3.21,28.6-3.37a135.62,135.62,0,0,1,16.49.72c3.85.41,7.9,1.5,11.88,2.08a5.68,5.68,0,0,1,4.59,3.81c3.37,10,6.66,20.46,12.05,29.38,3.67,6.07,16.19,6.05,22,5.74,3.67-.19,18.28-1.56,17.38-7.87M187.28,180.46c1.64-3.07,6.11-3.36,7.16.23,3.4,11.52,7.64,32.05,6.87,32.86-.21.23-1.18.16-1.73.12a134.77,134.77,0,0,0-17.4-.33c-3.37.15-6.76.44-10.14.85a1.15,1.15,0,0,1-1.16-1.69v0c6.2-11.39,10.28-20.58,16.39-32"/>
  <path class="cls-3" d="M452.52,46.29c-.42-3-1.13-5.4-3.18-6.93-24.37-18.18-55-24.84-82.11-18.21-22.57,5.53-45.77,18.75-62.07,36-1-7-2.05-14-3.42-21s-13.8-7.86-19.41-7.76c-4.9.09-18.78.56-19.41,7.76-1.81,20.76-.74,41.42.62,62.19,1.32,20.07,3.32,40.09,5.55,60.08s4.86,40,8,59.89c3.21,20.51,5.86,41.5,11.3,61.54,2.17,8,15.13,8.89,21.9,8.77,5.2-.1,10.64-.55,15.49-2.57,2.38-1,6.67-3,6.41-6.2-1.64-20.59-5.72-41.06-8.44-61.54-2.64-19.94-5.21-39.91-7.56-59.89q-1.11-9.48-2.13-19c0-.57,0-1.14,0-1.7,0-1.77,0-3.54.06-5.31.11-1.13.19-2.27.32-3.39.17-1.53.39-3,.61-4.55a2.07,2.07,0,0,0,0-.22c.15-.72.3-1.44.47-2.16q.57-2.49,1.27-5c.19-.69.41-1.38.61-2.07l.1-.32s0-.09,0-.16a84.53,84.53,0,0,1,18.06-30.15C351.45,67,375.24,58,399.19,59.66c16,1.1,30.11,6.92,43.89,14.8,4.95,2.84,7.57-5.1,8.11-8.13a69.94,69.94,0,0,0,1.33-20M314,139.23l-.06-.53c0-.6,0-.11.06.53m1-14.93c.43-2.86.14-.67,0,0"/>
  <path class="cls-4" d="M490.55,199.2a51.08,51.08,0,0,0-15.67-1.51c-5.75.49-20.87,2-21.31,10.24-.47,8.74-2,18-6.62,23.64-5.45,5.71-12.75,10.64-20.31,10.06C414,240.66,406.1,233,401,221.55c-3-8-4-20.25-4.74-29.78,3.26-.44,6.54-1.31,9.67-1.77,6.51-1,13.05-1.79,19.6-2.47,12.58-1.28,25.77-.85,38.08-3.8,5.8-1.38,6-16.49,6-16.95,1.39-15.47.57-31.73-6.06-46-6.48-14-19.3-22.62-34.1-25.81-19.2-4.15-43.59-.06-58.4,13.63-11.27,10.42-16.3,24.28-18.72,39.15-4.72,28.95-3.79,62.12,7.54,89.51,5.28,12.75,13.83,24.15,25.92,31.18,16.06,9.33,35.49,11,53.57,8.47a63.63,63.63,0,0,0,27.1-10.14c6.26-4.33,11.39-10.89,15.71-17.08,9.09-13,13.93-28.85,15.2-44.69.38-4.73-4.82-5.3-6.84-5.76m-88.68-70.14c3-7.92,11.88-11,17.82-2.31,2.86,4.17,5.89,16.43,6.51,24.3a1.47,1.47,0,0,1-1.34,1.57c-6.71.56-13.41,1.17-20.09,2.07-2.13.28-4.56.44-7,.7a1,1,0,0,1-1.12-1.08c.72-8.84,5.26-25.25,5.26-25.25"/>
  <path class="cls-3" d="M824.38,25.91c-.11-5.92-.76-15.4-7.49-17.42-8.68-2.61-89.08-3.64-107.09-3.76-17.69-.1-70.76.26-79.6.41s-18.8-.82-27.51,1.08c-7.21,1.58-8.29,13-8.17,19,.11,5.66.78,17.76,8.17,19,8.8,1.49,18.6.08,27.51-.09,8.52-.16,61.58-.76,79.6-.76H712a1.6,1.6,0,0,1,1.6,1.56c0,2.72.35,5.45.48,8.24.23,5,.29,10,.32,14.94.06,9.75,4.86,171.2,6.91,211.75.43,8.33,17.25,9.28,22.94,9.17,5.37-.09,11.27-.44,16.22-2.68,2.6-1.18,6.8-3,6.72-6.49-1-40.91-2.16-81.76-3.91-122.65-.87-20.28-4.32-80.92-5.06-91-.48-6.4-.52-13.57-1.93-20.18a2,2,0,0,1,1.93-2.36c1.54,0,3.08,0,4.63.05,8.84.12,45.24,1.65,54-.44,6.6-1.57,7.6-11.86,7.49-17.43"/>
  <path class="cls-1" d="M1708.36,208a160.74,160.74,0,0,0-12.75-44.39c-11.58-25-31.82-45.08-37.15-72.78-2.83-14.71-3.47-30.14-.32-44.86a68.56,68.56,0,0,1,2.41-8.49c.85,1.51,1.67,3.05,2.43,4.61,4.37,9,6.84,18.81,8.51,28.67,1.13,6.68,13.11,7.39,18.25,7.3,4.25-.08,18.07-.59,18.25-7.3a82.34,82.34,0,0,0-13-45.5c-5.38-8.36-11.83-15.74-21.89-18.12a53.09,53.09,0,0,0-34.46,3.71c-7.42,3.47-11.79,7.41-15.69,14.65a78.13,78.13,0,0,0-7.41,21.22c-3.09,15-2.31,30.7.72,45.64,3.22,15.92,10.47,29.83,19,43.51,8,12.86,17,25.58,21.89,40,5.59,16.38,9.32,34,8.63,51.35-.44,11.31-2.54,23.49-9.42,32-2.54-3.82-3.12-7.76-4.35-13-3.18-13.51-5.3-27.3-7.48-41-1.19-7.5-14.8-8.31-20.51-8.21-4.87.09-10,.51-14.5,2.41-2.23.93-6.25,2.81-6,5.8.85,10.53,2.31,21,4.06,31.43s3,23.43,10.57,31.34c23,24,74.91,19.09,86.55-14.58,5.09-14.71,5.83-30.13,3.65-45.48m-60,58.17h0l-.11.06.1-.05"/>
  <path class="cls-4" d="M1597.81,247.92c-10.81-2-22-2.32-32.9-3.54-3.49-.39-7-.83-10.45-1.28-.12-1.43-.24-2.85-.35-4.28-1.53-19.18-2.63-38.4-3.78-57.61,3.31-.24,6.62-.43,9.93-.55,7.94-.28,17.23.8,24.64-2.32,4.3-1.8,5-11.53,5-15.19-.08-4.42-.47-12.7-5-15.19-7.24-4-17.53-3.41-25.59-3.29-3.55.05-7.43,0-11.3.11-2.09-30.86-4.4-61.72-6.32-92.59-.17-2.61-.39-5.25-.56-7.9q6.07-.74,12.17-1.36c8.44-.88,16.92-1.56,25.41-1.89,7.3-.28,17.06.91,23.81-2.11,4.47-2,5.24-11.88,5.16-15.78-.09-4.81-.53-12.89-5.16-15.78-6.06-3.77-16.24-3.09-23.1-3-9,.17-18,.73-26.89,1.51-8.72.77-17.43,1.91-26.08,3.22q-5.78.88-11.51,1.91c-3.9.7-8.82,1-12.23,3.08-5.69,3.49-5.9,14.28-5.58,19.87a43.07,43.07,0,0,0,.87,6.79c.14,3.16.44,6.33.55,9.43.23,6.55.34,13.11.53,19.66.34,12.12.61,24.24,1.14,36.36,2.11,48.82,5.35,97.54,8.22,146.32.32,5.52.45,11.14,2.78,16.27,3.92,8.62,15,11.23,23.45,12.4a113.33,113.33,0,0,0,28.86.2l.47.05c11.1,1,22.94,1.94,33.81-1.05,6.14-1.69,7.09-10.89,7-16.25-.09-4.92-.67-15.1-7-16.26"/>
  <path class="cls-3" d="M1416.24,106.56c-7.11-3.93-16.25-4.44-24.43-5.16q-.43-17.79-.93-35.59c-.56-19.16-.42-38.42-1.51-57.56-.43-7.5-15.47-8.34-20.63-8.24s-20.06.61-20.62,8.24C1346,37.93,1346,68,1346.29,97.84q-5-.25-9.93-.44c-9-.33-18.51-1.38-27.42-.33-6.77.8-7.75,12.73-7.65,17.81s.74,16.89,7.65,17.8c8.94,1.17,18.39.51,27.42.86,3.44.13,6.88.29,10.33.46q.63,42.13,2.21,84.25.52,14.13,1.14,28.27c.41,9.49-.27,20,2.2,29.23,2.18,8.12,15.42,9.05,22.3,8.92,6.18-.11,20.93-.6,22.31-8.92,1.33-8,0-16.78-.4-24.88q-.59-12.75-1.09-25.5-1-26.58-1.8-53.19-.49-17.34-.89-34.69c7.23,1,15.14,2.31,21.74.42,5.5-1.57,6.46-9,6.75-13.84s.17-14.69-4.92-17.51"/>
  <path class="cls-4" d="M1059.74,39.32c-4.29-10.72-16-22.91-26.4-28-12.5-6.17-29.5-6.83-43.48-7.8C974.12,2.38,926.61,7,918.71,8.14c-7.24,1-14.94,1.69-22,3.87-6.29,2-10.78,8.83-10.55,15.6.27,16.66,2,31.68,2,46.53,0,16.37.62,32.78,1.17,49.14,1.13,33.1,3.3,66.12,6.06,99.13.77,9.15,4.05,45.8,4.36,48,1.94,13.68,21.07,12.56,26.69,12.26,5.92-.32,13.53-1.27,17.66-6.09,3.92-4.57,1.74-16.79,1.27-22.33-.44-5.22-2.41-30.23-3.15-40.69-1.49-20.93-2.82-41.87-4.23-62.8-.19-3-.39-5.95-.58-8.92,5.64.09,11.32-.05,17-.37,13.19-.74,47.62-5.34,69.92-19.47,14.17-9,25.51-17.89,33.31-31.32,8.47-14.58,8.67-35,2.13-51.38M959,103.89c-5.8.37-11.61.53-17.42.52-1,0-2,0-3,0a3.64,3.64,0,0,1-3.66-3.43c-.45-7.5-1.29-21.79-1.88-30.66-.26-3.8-1-17.2-1.5-24.27a3.55,3.55,0,0,1,3.19-3.75c2-.2,4-.39,6-.57,15.08-1.32,63.49-7.38,75.12,1.54,9.9,7.59,9.88,25,5.28,35.3-2.17,4.84-8.91,11.22-17.49,16.16-13.52,5.94-33.24,8.43-44.69,9.15"/>
  <path class="cls-2" d="M1163.67,233.43c-.64-8.11-4.37-56.17-5.59-72.09s-3.61-81.23-7.37-97.19c-1.57-6.64-15.14-6.84-20.59-6.75-5.14.1-24.29.09-24.44,7-.51,22.77,2.55,37.87,3.21,56.93-1.21-.53-2.42-1-3.63-1.44-18-6.23-41.63-4.84-57.25,7.06-10.53,8-17.49,19.36-23.57,30.87a228.37,228.37,0,0,0-16.15,39.46,222.92,222.92,0,0,0-8.59,41c-1.5,13.43-.35,27.31,11.79,35.58,9.43,6.41,22.49,7.43,33.47,6a42.14,42.14,0,0,0,24.21-11.44c10.13-9.43,17-21.13,24.24-32.77q8.47-13.6,18.15-26.4a1.82,1.82,0,0,1,3.26.92c.57,6.14,1.58,16.79,2.19,22.31.93,8.42,1.56,17.12,3.89,25.29,2.28,8,15.09,8.9,22,8.78,5.22-.09,22.13-.56,22-8.78s-.52-16.28-1.15-24.32m-94.17-24.34c-6.55,9-12.43,18.47-18.29,28q-.78,1.29-1.59,2.58a2.19,2.19,0,0,1-4-1.39,227.63,227.63,0,0,1,3.71-24.1c4.58-21.69,15.73-59.68,24.46-61.7a60.83,60.83,0,0,1,21-.95c6.64,1.07,16.41,4,16.57,8.41.23,6.18-29.6,32.37-41.78,49.19"/>
  <path class="cls-1" d="M1324.4,254.17c-5.23-2.54-17.39-8.72-21.1-13.18-9.31-11.17-13.09-23-18.73-36.31-6.87-16.16-10-33.33-16.58-49.63-2.35-5.85-4.38-11.82-6.27-17.84-1.37-4.39-3.14-8.82-4.7-13.26a3.4,3.4,0,0,1,1.92-4.27c19-7.68,35.42-21.45,43.47-39.82,6.2-14.12,9.18-31.87.7-45.75-9.61-15.72-30.1-21.92-46.9-24.41a122.29,122.29,0,0,0-35.94.16c-2.41.36-4.83.76-7.25,1.23-.07-.3-.15-.59-.23-.88-1.85-6.55-12.39-7.31-18-7.21-5,.09-16.87.48-18,7.21-1.41,8.23-.14,42.65,0,51.19.36,17.07,1,34.12,1.75,51.19,1.52,34.47,4.09,68.92,6.15,103.36.57,9.52,2,48.63,4.08,58.08,1.66,7.54,14.54,8.37,20.64,8.26,5.35-.09,19.8-.58,20.64-8.26.92-8.33-.33-17.22-.72-25.59-.34-7.27-3.31-65.29-4.34-85.46a1,1,0,0,1,1.86-.36c4,11.23,12.37,34.83,17.52,47.8,5.35,13.46,10.9,27.91,19.67,39.59,9.26,12.32,19,19.85,34,23.19,7.8,1.73,17.87,4.69,22.93-1.71,8.41-10.64,8.6-14.82,3.46-17.32M1268,60.93c-1,6.78-3.45,17.48-17.57,26.23-5.2,3.22-17,7.67-25,11a3.11,3.11,0,0,1-4.29-2.64c-.73-9.86-2.12-26.76-2.91-36.24a9.33,9.33,0,0,1,5.51-9.32,61.42,61.42,0,0,1,36.55-4.09c6.43,2,8.66,8.41,7.67,15.09"/>
  <path class="cls-2" d="M1484.38,263.22q-.2-6.41-.32-12.8l-.54-23.62c-.36-16.08-.89-32.18-1.68-48.24-.77-15.77-1.66-31.52-2.94-47.25q-1-11.84-2.22-23.63c-.91-8.47-1.28-17.23-2.88-25.59-1.35-7-13.7-7.79-19.24-7.7-5,.09-18.48.55-19.23,7.7-.85,8.09-.47,16.46-.65,24.61s-.23,16.4-.19,24.61c.08,16.09.54,32.16,1.18,48.23s1.51,32.18,2.53,48.24q.75,11.82,1.51,23.63c.54,8.43-.17,17.94,2.76,25.88,1,2.72,7.64,4.61,9.75,5.06a49.88,49.88,0,0,0,13.52,1c6.14-.33,16.4-1.28,18.38-8.33,1-3.71.37-8,.26-11.81"/>
  <path class="cls-2" d="M1453.77,49.24c11.29,0,20.44-7.32,20.44-18.6s-7.7-18-20.44-20.43c-11.08-2.1-20.43,9.14-20.43,20.43s9.15,18.6,20.43,18.6"/>
</svg>