<svg width="89" height="40" viewBox="0 0 89 40" fill="none" xmlns="http://www.w3.org/2000/svg">
<path d="M6.89749 0C4.20726 0 1.45636 1.99339 1.45636 5.12586C1.45636 6.87516 2.62954 8.44139 4.63204 9.43809C6.61431 10.4348 8.3943 10.984 8.3943 12.2044C8.3943 13.7707 6.81658 13.852 5.98726 13.852C4.12636 13.852 1.90136 11.9603 1.90136 11.9603L0 15.1742C0 15.1742 2.36659 17.3913 6.27044 17.3913C9.52703 17.3913 12.5611 15.9878 12.5611 11.9807C12.5611 9.78388 10.5182 8.19731 8.65726 7.40402C6.7559 6.59039 5.17817 5.91915 5.17817 4.98347C5.17817 4.06814 5.8659 3.47826 7.16044 3.47826C8.87976 3.47826 10.5384 4.63768 10.5384 4.63768L12.0757 1.58658C12.0757 1.58658 9.93157 0 6.89749 0Z" class="logo-name__fill"/>
<path d="M23.8858 0.30511H14.3386V17.0862H23.8858V13.73H18.1413V10.3534H23.6431V6.9972H18.1413V3.66133H23.8858V0.30511Z" class="logo-name__fill"/>
<path d="M34.9517 13.6283C31.1288 13.6283 29.4499 10.9433 29.4499 8.68548C29.4499 6.448 31.1288 3.76303 34.9517 3.76303C36.8935 3.76303 38.2285 4.80041 38.2285 4.80041L39.8467 1.54589C39.8467 1.54589 37.9858 0 34.3651 0C29.632 0 25.3235 3.90542 25.3235 8.72616C25.3235 13.5266 29.6522 17.3913 34.3651 17.3913C37.9858 17.3913 39.8467 15.8454 39.8467 15.8454L38.2285 12.5909C38.2285 12.5909 36.8935 13.6283 34.9517 13.6283Z" class="logo-name__fill"/>
<path d="M40.5532 8.68548C40.5532 13.5876 44.0323 17.3913 48.9678 17.3913C53.7616 17.3913 57.3621 13.5876 57.3621 8.68548C57.3621 3.78337 53.5998 0 48.9678 0C44.3762 0 40.5532 3.78337 40.5532 8.68548ZM44.6594 8.68548C44.6594 6.18358 46.0348 3.68167 48.9678 3.68167C51.9209 3.68167 53.2559 6.18358 53.2559 8.68548C53.2559 11.1874 52.0019 13.6893 48.9678 13.6893C45.8528 13.6893 44.6594 11.1874 44.6594 8.68548Z" class="logo-name__fill"/>
<path d="M62.8427 6.67175H62.8832L69.5177 17.0862H73.3204V0.30511H69.5177V10.7196H69.4772L62.8427 0.30511H59.04V17.0862H62.8427V6.67175Z" class="logo-name__fill"/>
<path d="M75.7512 0.30511V17.0862H80.5855C85.177 17.0862 89 13.5876 89 8.68548C89 3.80371 85.1568 0.30511 80.5855 0.30511H75.7512ZM79.5539 13.669V3.72235H80.1405C82.9723 3.72235 84.8939 5.89881 84.8939 8.70582C84.8736 11.5128 82.952 13.669 80.1405 13.669H79.5539Z" class="logo-name__fill"/>
<path d="M14.685 40H18.4877L16.9909 23.2189H12.9454L9.24384 32.9011L5.54227 23.2189H1.49682L0 40H3.80271L4.59158 30.0534H4.69273L8.11112 39.8983H10.3766L13.795 30.0534H13.8961L14.685 40Z" class="logo-name__fill"/>
<path d="M23.8335 23.2189H20.0308V40H23.8335V23.2189Z" class="logo-name__fill"/>
<path d="M30.0558 23.2189H26.253V40H35.8003V36.6438H30.0558V23.2189Z" class="logo-name__fill"/>
<path d="M47.2374 23.2189H37.6901V40H47.2374V36.6438H41.4929V33.2672H46.9947V29.911H41.4929V26.5751H47.2374V23.2189Z" class="logo-name__fill"/>
</svg>
