<svg xmlns="http://www.w3.org/2000/svg" viewBox="0 0 500 273.81">
  <defs>
    <style>.cls-1{fill:#f6bb3d;}.cls-2{fill:#1d4b58;}.cls-3{fill:#e86859;}.cls-4{fill:#57bcc2;}</style>
  </defs>
  <g id="Layer_2" data-name="Layer 2">
    <g id="Layer_1-2" data-name="Layer 1">
      <path class="cls-1" d="M449.94,78.12c-.09-2.58-.21-5.16-.41-7.74-.18-2.4-.2-5.41-1.54-7.49-1.1-1.7-4.6-2-6.34-1.93a16.79,16.79,0,0,0-3.32.36c-.7.15-3.1.51-3.33,1.53-.54,2.45-.2,5.06-.12,7.53s.1,5.16.08,7.74c-.06,5.42-.28,10.84-.46,16.26l-.09,2.68a.49.49,0,0,1-.94.18c-5.56-13-11.31-26-17.13-38.88q-2.11-4.68-4.24-9.34c-1.37-3-2.71-6.56-4.8-9.12-1.55-1.91-5-2-7.18-1.88a20.44,20.44,0,0,0-6.1,1c-1.16.62-1.16,1.49-1.32,2.55-.56,3.46,0,7.24.07,10.73s.31,7.16.49,10.74c.36,7.17.63,14.33.9,21.5s.48,14.34.63,21.51c.07,3.59.13,7.17.17,10.76,0,1.79,0,3.59.06,5.38s-.21,3.8.83,5.45c1.13,1.82,4.91,2.09,6.74,2.06s5.56-.15,6.75-2.06c1-1.66.78-3.56.79-5.45s0-3.59,0-5.38c0-3.59-.08-7.17-.14-10.76q-.19-10.75-.59-21.51c-.06-1.66-.13-3.32-.2-5a.35.35,0,0,1,.68-.15q5.85,14.11,12,28.09c2.72,6.23,5.52,12.41,8.49,18.53.48,1,2.56,1.57,3.44,1.79a35.14,35.14,0,0,0,7,.31c.84-.06,5.92-.43,7.41-2.18.89-1,.79-2.37.83-3.66s.11-2.43.12-3.65q.07-4,.23-8c.21-5.43.45-10.85.62-16.28s.18-10.83,0-16.26"/>
      <path class="cls-1" d="M499.6,214.52a54.9,54.9,0,0,0-4.35-15.18c-4-8.53-10.89-15.42-12.71-24.89a38.65,38.65,0,0,1-.11-15.34,24.14,24.14,0,0,1,.82-2.91c.29.52.58,1.05.84,1.58a36.73,36.73,0,0,1,2.91,9.81c.38,2.28,4.48,2.52,6.24,2.49,1.45,0,6.18-.2,6.24-2.49A28.19,28.19,0,0,0,495,152c-1.84-2.86-4.05-5.38-7.49-6.19a18.12,18.12,0,0,0-11.78,1.27,10.46,10.46,0,0,0-5.37,5,26.7,26.7,0,0,0-2.53,7.25,39.26,39.26,0,0,0,.24,15.61c1.11,5.45,3.58,10.21,6.5,14.88,2.74,4.4,5.8,8.75,7.49,13.7a49.18,49.18,0,0,1,2.95,17.56c-.15,3.87-.87,8-3.22,10.95a12.7,12.7,0,0,1-1.49-4.44c-1.09-4.63-1.81-9.34-2.56-14-.41-2.56-5.06-2.84-7-2.8a13.46,13.46,0,0,0-5,.82c-.76.32-2.14,1-2.06,2,.29,3.61.79,7.19,1.39,10.75s1,8,3.62,10.72c7.86,8.21,25.62,6.53,29.6-5a32.92,32.92,0,0,0,1.24-15.55m-20.53,19.89h0l0,0,0,0"/>
      <path class="cls-2" d="M276,40.91c-4.42-2.81-9.64-4.09-14.78-4.76a55.73,55.73,0,0,0-15.1.08,50.5,50.5,0,0,0-12.78,3.48.41.41,0,0,1-.58-.37q0-2.52-.15-5c-.1-2.35-4.87-2.61-6.46-2.59-1.8,0-6,.18-6.45,2.59-2.08,12.08-2.17,24.56-1.86,36.79s1.18,24.3,2.59,36.38a190.46,190.46,0,0,0,3.41,20.68c.6,2.6,5,2.88,7.11,2.85a13.64,13.64,0,0,0,5-.84c.76-.31,2.2-1,2.09-2-1.32-12.18-3.1-24.3-4-36.53-.27-3.47-.48-7-.66-10.43a.61.61,0,0,1,.69-.64,71.33,71.33,0,0,0,14.61.14,66.37,66.37,0,0,0,15.17-3c8.16-2.66,15.72-7.86,18.6-16.22,2.66-7.73.71-16-6.44-20.59M252.69,68A86.72,86.72,0,0,1,241.2,69c-2.86,0-6.25-.26-8.29-2.54a.1.1,0,0,1,0-.09c-.07-3.75-.09-7.47-.06-11.22V55a1.62,1.62,0,0,1,.9-1.45c1.13-.56,2.29-1.09,3.46-1.58A57.11,57.11,0,0,1,250,48.25c4.43-.73,9.18-1.14,13.6-.14a14,14,0,0,1,3.1,1.12,4.91,4.91,0,0,1,2.64,3.57,17.67,17.67,0,0,1-.26,6.32,6.81,6.81,0,0,1-.84,2.11,9,9,0,0,1-4.1,3.57A43.23,43.23,0,0,1,252.69,68"/>
      <path class="cls-1" d="M308.87,127.22c-.57-4.06-2.48-8.07-3.8-11.94s-2.61-7.91-4-11.86-2.55-7.63-3.77-11.46C296,87.85,295,83.5,293.28,79.54c-.4-.89-2.08-1.69-2.84-1.86a26.93,26.93,0,0,0-5-.59c-4.51,0-6.93.42-8.1,1.49-3.21,3-5.54,7-7.84,10.78s-4.67,7.8-6.8,11.82q-3.44,6.45-6.55,13c-2,4.16-4.28,8.34-5.61,12.75-.25.84,1.53,1.72,1.95,1.88a12.51,12.51,0,0,0,3.82.74c2.08.11,6,.1,7.31-1.91a83,83,0,0,0,5.14-9.75,2,2,0,0,1,1.49-1.13,61.71,61.71,0,0,1,9.78-1.15,46.1,46.1,0,0,1,5.64.25c1.32.13,2.71.51,4.07.71a2,2,0,0,1,1.57,1.3,49.81,49.81,0,0,0,4.12,10c1.25,2.07,5.53,2.07,7.52,2,1.25-.07,6.25-.53,5.94-2.69M281.76,92.66a1.3,1.3,0,0,1,2.45.08c1.16,3.93,2.61,11,2.35,11.23-.08.08-.41.06-.6,0a47.2,47.2,0,0,0-5.95-.11c-1.15,0-2.31.15-3.47.29a.39.39,0,0,1-.39-.58h0c2.12-3.9,3.52-7,5.61-11"/>
      <path class="cls-3" d="M372.47,46.77a3.28,3.28,0,0,0-1.09-2.37c-8.33-6.22-18.82-8.5-28.08-6.23a45.06,45.06,0,0,0-21.23,12.32c-.32-2.4-.7-4.8-1.17-7.18s-4.72-2.69-6.64-2.65c-1.67,0-6.42.19-6.63,2.65a138.58,138.58,0,0,0,.21,21.27c.45,6.86,1.13,13.71,1.9,20.55s1.66,13.67,2.73,20.48c1.09,7,2,14.19,3.86,21,.74,2.72,5.17,3,7.49,3a14.26,14.26,0,0,0,5.3-.88c.81-.33,2.28-1,2.19-2.11-.56-7-1.95-14-2.88-21-.91-6.82-1.79-13.65-2.59-20.48-.25-2.16-.49-4.33-.73-6.49,0-.2,0-.39,0-.58,0-.61,0-1.21,0-1.82,0-.39.06-.77.11-1.16s.13-1,.21-1.56v-.07c.05-.25.1-.49.16-.74.13-.57.27-1.13.43-1.7l.21-.71,0-.11,0,0a28.85,28.85,0,0,1,6.18-10.31,26.89,26.89,0,0,1,21.75-8.49c5.49.38,10.3,2.37,15,5.07,1.69,1,2.59-1.75,2.78-2.79a24.43,24.43,0,0,0,.45-6.85M325.1,78.55a1.1,1.1,0,0,0,0-.18c0-.2,0,0,0,.18m.35-5.1c.14-1,.05-.23,0,0"/>
      <path class="cls-4" d="M385.48,99.07a17.24,17.24,0,0,0-5.36-.52c-2,.17-7.14.69-7.29,3.5-.16,3-.68,6.16-2.27,8.09-1.86,2-4.36,3.63-6.94,3.44-4.34-.34-7-3-8.77-6.87-1-2.74-1.38-6.92-1.62-10.18,1.12-.16,2.24-.45,3.31-.61q3.34-.49,6.7-.84c4.31-.44,8.82-.3,13-1.3,2-.48,2-5.65,2.05-5.8.48-5.29.19-10.85-2.07-15.75s-6.6-7.73-11.66-8.83c-6.57-1.41-14.91,0-20,4.67-3.85,3.56-5.57,8.3-6.4,13.38-1.61,9.91-1.29,21.25,2.58,30.62a21.61,21.61,0,0,0,8.86,10.66c5.5,3.19,12.14,3.77,18.33,2.9a21.83,21.83,0,0,0,9.27-3.47,23,23,0,0,0,5.37-5.84A31.06,31.06,0,0,0,387.81,101c.13-1.62-1.64-1.82-2.33-2m-30.33-24c1-2.71,4.06-3.75,6.09-.79,1,1.43,2,5.62,2.23,8.31a.5.5,0,0,1-.46.53c-2.29.2-4.59.41-6.87.71-.73.1-1.56.16-2.41.24a.34.34,0,0,1-.38-.37,63.52,63.52,0,0,1,1.8-8.63"/>
      <path class="cls-3" d="M499.65,39.8c0-2-.26-5.27-2.57-6-3-.89-30.46-1.24-36.62-1.28s-24.2.09-27.22.14-6.43-.28-9.41.37c-2.47.54-2.84,4.46-2.8,6.5s.27,6.07,2.8,6.5c3,.51,6.36,0,9.41,0s21.06-.26,27.22-.26h.76a.54.54,0,0,1,.54.54c0,.93.12,1.86.17,2.81.07,1.71.09,3.41.11,5.11,0,3.34,1.66,58.55,2.36,72.42.14,2.85,5.9,3.17,7.84,3.14a14.12,14.12,0,0,0,5.55-.92c.89-.4,2.33-1,2.3-2.22-.33-14-.74-28-1.34-41.94-.29-6.94-1.47-27.68-1.73-31.11a51.39,51.39,0,0,0-.66-6.91.67.67,0,0,1,.66-.81l1.59,0c3,0,15.47.57,18.47-.15,2.26-.54,2.6-4,2.57-6"/>
      <path class="cls-4" d="M461.8,228.17c-3.7-.67-7.52-.79-11.26-1.21-1.19-.13-2.38-.28-3.57-.44l-.12-1.46c-.52-6.56-.9-13.13-1.29-19.7,1.13-.08,2.26-.15,3.4-.19,2.71-.1,5.89.27,8.42-.79,1.47-.62,1.73-3.95,1.7-5.2,0-1.51-.16-4.34-1.7-5.19-2.47-1.37-6-1.17-8.75-1.13-1.21,0-2.54,0-3.86,0-.72-10.55-1.51-21.11-2.17-31.67-.05-.89-.13-1.79-.19-2.7,1.39-.16,2.78-.32,4.16-.46,2.89-.3,5.79-.53,8.69-.65,2.5-.1,5.84.31,8.15-.72,1.53-.69,1.79-4.06,1.76-5.4,0-1.64-.18-4.4-1.76-5.39-2.07-1.29-5.56-1.06-7.9-1-3.07.06-6.14.25-9.2.52s-6,.65-8.92,1.1c-1.31.2-2.62.42-3.93.65s-3,.34-4.19,1.06c-1.94,1.19-2,4.88-1.9,6.79a14.5,14.5,0,0,0,.29,2.32c0,1.09.15,2.17.19,3.23.08,2.24.12,4.48.18,6.72.12,4.15.21,8.3.39,12.44.72,16.7,1.83,33.36,2.81,50a15.3,15.3,0,0,0,1,5.57c1.33,2.94,5.12,3.84,8,4.24a39.29,39.29,0,0,0,9.87.07h.17c3.79.35,7.84.67,11.56-.36,2.1-.58,2.42-3.72,2.39-5.56,0-1.68-.23-5.16-2.39-5.56"/>
      <path class="cls-3" d="M399.7,179.83c-2.43-1.35-5.56-1.52-8.35-1.77q-.15-6.08-.32-12.17c-.19-6.55-.15-13.14-.52-19.68-.14-2.57-5.29-2.85-7.05-2.82s-6.87.21-7.06,2.82c-.74,10.15-.71,20.43-.62,30.64-1.13-.06-2.27-.11-3.4-.15a62.4,62.4,0,0,0-9.37-.12c-2.32.28-2.66,4.36-2.62,6.09s.25,5.78,2.62,6.09c3.05.4,6.29.18,9.37.3,1.18,0,2.36.1,3.53.15q.22,14.41.76,28.82.18,4.83.39,9.66c.14,3.25-.09,6.85.75,10,.75,2.78,5.28,3.1,7.63,3.05,2.11,0,7.16-.2,7.63-3.05s0-5.74-.14-8.51-.25-5.81-.37-8.72q-.36-9.09-.62-18.19c-.11-4-.2-7.91-.3-11.86,2.47.34,5.18.79,7.44.14,1.87-.54,2.21-3.07,2.3-4.73s.06-5-1.68-6"/>
      <path class="cls-4" d="M277.78,156.83a21,21,0,0,0-9-9.59c-4.27-2.11-10.09-2.33-14.87-2.67-5.38-.37-21.63,1.21-24.33,1.6a50,50,0,0,0-7.51,1.32,5.53,5.53,0,0,0-3.61,5.34c.09,5.7.68,10.83.68,15.91,0,5.6.21,11.21.4,16.81.38,11.32,1.12,22.61,2.07,33.9.26,3.13,1.38,15.66,1.49,16.42.66,4.68,7.2,4.3,9.13,4.2s4.62-.44,6-2.09.59-5.74.43-7.63-.82-10.34-1.08-13.92c-.5-7.16-1-14.32-1.44-21.48-.07-1-.13-2-.2-3,1.93,0,3.87,0,5.8-.12,4.51-.26,16.28-1.83,23.91-6.67,4.84-3.07,8.72-6.11,11.39-10.7,2.9-5,3-12,.73-17.58m-34.47,22.09q-3,.18-6,.17h-1a1.25,1.25,0,0,1-1.25-1.17c-.16-2.57-.45-7.46-.65-10.49-.08-1.3-.35-5.88-.51-8.3a1.21,1.21,0,0,1,1.09-1.28l2.07-.2c5.16-.45,21.71-2.52,25.69.53,3.39,2.59,3.38,8.55,1.81,12.07-.74,1.65-3.05,3.84-6,5.53-4.63,2-11.37,2.88-15.29,3.13"/>
      <path class="cls-2" d="M313.32,223.22c-.22-2.78-1.49-19.21-1.91-24.66s-1.23-27.78-2.52-33.24c-.53-2.27-5.18-2.34-7-2.3s-8.31,0-8.36,2.39c-.17,7.78.87,13,1.1,19.47-.41-.18-.83-.35-1.24-.5-6.18-2.13-14.24-1.65-19.58,2.42-3.6,2.74-6,6.62-8.07,10.56a79.12,79.12,0,0,0-5.52,13.49,76.22,76.22,0,0,0-2.94,14c-.51,4.6-.12,9.34,4,12.17,3.22,2.19,7.69,2.54,11.44,2.06a14.42,14.42,0,0,0,8.28-3.91c3.47-3.23,5.81-7.23,8.29-11.21,1.94-3.1,4-6.12,6.21-9a.63.63,0,0,1,1.12.32c.19,2.1.54,5.74.74,7.63a52.29,52.29,0,0,0,1.34,8.64c.77,2.73,5.15,3.05,7.51,3,1.78,0,7.56-.19,7.51-3s-.18-5.56-.4-8.31m-32.2-8.33c-2.24,3.1-4.25,6.32-6.26,9.57l-.54.88a.75.75,0,0,1-1.38-.48,79.18,79.18,0,0,1,1.26-8.24c1.57-7.42,5.38-20.41,8.37-21.1a21.09,21.09,0,0,1,7.17-.33c2.27.37,5.61,1.36,5.67,2.88.08,2.12-10.13,11.07-14.29,16.82"/>
      <path class="cls-1" d="M368.29,230.31c-1.79-.87-5.94-3-7.21-4.51-3.19-3.82-4.48-7.87-6.41-12.41-2.35-5.53-3.43-11.4-5.67-17-.8-2-1.5-4-2.14-6.1-.47-1.5-1.08-3-1.61-4.54a1.14,1.14,0,0,1,.66-1.45c6.48-2.63,12.11-7.34,14.86-13.62,2.12-4.83,3.14-10.9.24-15.65-3.29-5.37-10.29-7.49-16-8.35a41.84,41.84,0,0,0-12.29.06c-.82.12-1.65.26-2.48.42,0-.1-.05-.2-.08-.3-.63-2.24-4.24-2.5-6.16-2.47-1.72,0-5.77.17-6.17,2.47-.48,2.81,0,14.59,0,17.5.12,5.84.34,11.67.6,17.51.51,11.79,1.39,23.57,2.1,35.35.19,3.26.68,16.63,1.39,19.87.57,2.57,5,2.86,7.06,2.82,1.83,0,6.77-.2,7.06-2.82a58.32,58.32,0,0,0-.24-8.76c-.12-2.48-1.14-22.33-1.49-29.22a.33.33,0,0,1,.64-.13c1.35,3.84,4.23,11.91,6,16.35,1.83,4.6,3.73,9.55,6.72,13.54,3.17,4.21,6.5,6.79,11.63,7.93,2.66.59,6.11,1.6,7.84-.59,2.88-3.63,2.94-5.06,1.18-5.92M349,164.22a11.74,11.74,0,0,1-6,9,81.33,81.33,0,0,1-8.54,3.76A1.07,1.07,0,0,1,333,176c-.25-3.37-.73-9.15-1-12.39a3.19,3.19,0,0,1,1.89-3.19,21,21,0,0,1,12.5-1.4c2.2.68,3,2.88,2.62,5.16"/>
      <path class="cls-2" d="M423,233.41c0-1.46-.07-2.92-.11-4.38l-.18-8.08c-.12-5.5-.31-11-.57-16.5s-.57-10.78-1-16.16q-.33-4-.76-8.08c-.31-2.89-.44-5.89-1-8.75-.47-2.41-4.69-2.67-6.58-2.63-1.7,0-6.32.18-6.58,2.63-.29,2.77-.16,5.63-.22,8.42s-.08,5.61-.07,8.41c0,5.51.19,11,.41,16.5s.51,11,.86,16.5c.17,2.69.35,5.38.52,8.08.18,2.88-.06,6.13.94,8.85.34.93,2.61,1.57,3.33,1.73a17.56,17.56,0,0,0,4.63.35c2.1-.12,5.61-.44,6.29-2.85a14,14,0,0,0,.08-4"/>
      <path class="cls-2" d="M412.54,160.23c3.86,0,7-2.51,7-6.37s-2.64-6.16-7-7c-3.79-.72-7,3.13-7,7s3.13,6.37,7,6.37"/>
      <path class="cls-2" d="M10.89,81.76a3.66,3.66,0,0,0-2.95-3.34l-.15,0a4.72,4.72,0,0,0-1.23-.57,6.77,6.77,0,0,0-3-.25A4,4,0,0,0,.46,79.5a4.23,4.23,0,0,0-.09,3.64,5.06,5.06,0,0,0,3.76,2.64A6.35,6.35,0,0,0,9,85.11a4.15,4.15,0,0,0,1.86-3.35m-4.58,1.5c.1.08.1.25,0,0"/>
      <path class="cls-2" d="M88.25,171c1.43,1.34,3.19.9,4.45.22l.13-.08a4.63,4.63,0,0,0,1.27-.48,6.76,6.76,0,0,0,2.25-1.94,4,4,0,0,0,.79-3.6,4.19,4.19,0,0,0-2.53-2.62,5.07,5.07,0,0,0-4.52.86,6.31,6.31,0,0,0-2.94,4,4.13,4.13,0,0,0,1.1,3.67"/>
      <path class="cls-4" d="M99.94,51.19q5.5,6.48,11,13c-3.3,1.22-6.6,2.44-9.88,3.71-1.52.58-2.5,2.58-3,4s-1.23,3.75-.23,5a88.33,88.33,0,0,0,10.52,11.35l1.23,1.06q-4.16.56-8.29,1.2a154.65,154.65,0,0,0-22.26,4.75c-1.56.49-2.6,2.75-3.07,4.14s-1.15,3.68-.24,5.14a100.16,100.16,0,0,0,9.59,13.3c1.74,2,3.58,3.83,5.5,5.61l-2.11.94c-4,1.76-8.07,3.36-11.92,5.4-1.46.77-2.42,3.49-2.74,5-.26,1.24-.68,3.27.58,4.08,2.91,1.86,5.66,3.89,8.69,5.57a61.08,61.08,0,0,0,9.48,4.18c1.42.5,2.65-2.43,3-3.36s1.23-3.81-.17-4.48a94.09,94.09,0,0,1-9-4.92c-.56-.34-1.13-.7-1.69-1.06l1.7-.75c3.83-1.64,7.66-3.28,11.48-4.95,1.84-.8,2.79-3.09,3.33-4.89.43-1.48,1-3.87-.42-5a77.21,77.21,0,0,1-16.24-16.15c4.69-1,9.39-1.92,14.16-2.62,7.52-1.11,15.08-1.86,22.59-2.9.77-.11,1.63-1.28,2-1.83a12.44,12.44,0,0,0,1.34-3c.38-1.27,1.13-4.09-.41-4.91a66.9,66.9,0,0,1-17.34-13.43c3.38-1.21,6.75-2.44,10.12-3.66,1.56-.57,2.57-2.69,3.06-4.14s1.29-3.91.24-5.14c-5.43-6.34-10.9-12.65-16.35-19-1.87-2.17-6.14,6.53-4.25,8.75"/>
      <path class="cls-3" d="M36.23,37.21C35.08,38.58,33.39,41,34,42.89a40.17,40.17,0,0,1,2.08,10.59,17.22,17.22,0,0,0-2.27,0,15.21,15.21,0,0,0-9.18,4.07,17.26,17.26,0,0,0-4.35,6.22c-.63,1.56-1.17,3.64-.43,5.27,1.67,3.68,7.39,2,10.05.56a22.15,22.15,0,0,0,7.35-6.47,24.76,24.76,0,0,1,7.84,5.4,29.23,29.23,0,0,1,5.17,7,10.81,10.81,0,0,0-6.52,1,18.32,18.32,0,0,0-8.37,9.54c-1.27,3.29-1.38,6.86.95,9.69A9.6,9.6,0,0,0,44,99.13c3.85-.21,7.24-2.69,9.67-5.52a24.17,24.17,0,0,0,1.75-2.28,32.18,32.18,0,0,1,3,9,55.27,55.27,0,0,1,.35,19.24c-.08.49-.24,1.38.29,1.75s1.33-.09,1.74-.36a8.65,8.65,0,0,0,3.5-5.08,63.43,63.43,0,0,0-.23-23.31A27.72,27.72,0,0,0,59.18,81C59.68,74,56.39,67.17,51.94,62a26,26,0,0,0-10.45-7.41,30.25,30.25,0,0,0-1.38-18.86c-.7-1.8-3.33.77-3.88,1.44M40.4,84.75h0m.07,0,.09,0-.09,0Zm.39-.58a.34.34,0,0,0-.06.06v0c.08-.08.14-.13.06,0m-.06,0v0h0c-.27.27-.11.07,0-.06m11.76,4.1,0,0c0,.09-.07.23-.15.47L52.3,89h0v0h0s0,0,0,0v0s0,0-.07.14v0h0v0a.05.05,0,0,1,0,0,.93.93,0,0,0-.05.1l-.2.17s-.28.23-.33.27a6.09,6.09,0,0,1-2.77,1.07,8,8,0,0,1-6-1.86,5.84,5.84,0,0,1-1.77-2.45,5,5,0,0,1-.31-1.2,4.69,4.69,0,0,1,0-.75v0l.19-.11a6.92,6.92,0,0,1,1.53-.59,10.11,10.11,0,0,1,7,1.26,13.79,13.79,0,0,1,3.23,2.48c0,.23-.1.46-.15.68M31.4,62.78a5.48,5.48,0,0,1-3.22.83,2.07,2.07,0,0,1-1.77-1.12c.68-.87,3-.93,4.57-.89a4.67,4.67,0,0,1,1.58.3,8.58,8.58,0,0,1-1.16.88"/><path class="cls-3" d="M52.18,89.15c-.11.15-.2.32,0,0,0,0,0,0,0,0l.06-.13h0v0c-.1,0-.41.34-.12.17"/>
      <path class="cls-3" d="M52.24,89.12c0-.06,0-.1.06-.11a.67.67,0,0,0-.06.12h0"/>
      <path class="cls-1" d="M160.81,103.2a12.37,12.37,0,0,0-8.14,2.34,6.93,6.93,0,0,0-2.06,4.11c-.47,3.21,1.93,5.25,5,5.3,3.54.07,8.08-2,8.92-5.8a4.86,4.86,0,0,0-3.71-6"/>
      <path class="cls-3" d="M113.64,164.73c6.93-3.7,13.76-7.57,20.41-11.78q4.86-3.07,9.63-6.29c1.59-1.08,3.18-2.15,4.74-3.26l2.51-1.8a7.18,7.18,0,0,0,2.22-2.06c.66-1.17-1.49-2.69-2.18-3.14-1.22-.81-2.88-1.66-4.38-1.2-1.81.56-3.39,2.06-4.93,3.15s-3.1,2.22-4.66,3.32q-4.77,3.35-9.63,6.55c-6.38,4.22-12.81,8.37-19.35,12.32-1.84,1.11,3.78,5.17,5.62,4.19"/>
      <path class="cls-1" d="M78.47,71.3c.22.25.44.5.68.74l.6.32a3,3,0,0,0,1.24.15,6.48,6.48,0,0,0,2.51-.57,8.1,8.1,0,0,0,1.82-1.12,3.06,3.06,0,0,0,.85-1,1.86,1.86,0,0,0,.38-1c0-.33,0-.66-.08-1A1.33,1.33,0,0,0,86,66.65a2.64,2.64,0,0,0-1.49-.52l-1,0a7.62,7.62,0,0,0-2.22.61,5.91,5.91,0,0,0-1.52.88,4.68,4.68,0,0,0-1.14,1A2.73,2.73,0,0,0,78,70.12a1.35,1.35,0,0,0,.51,1.18"/>
      <path class="cls-4" d="M170.22,33.09a4,4,0,0,0-.23-.46,4.45,4.45,0,0,0-.67-.76l-.55-.28a2.79,2.79,0,0,0-1.14-.11,6.22,6.22,0,0,0-2.34.55,7.83,7.83,0,0,0-1.7,1,2.78,2.78,0,0,0-.8.9,1.67,1.67,0,0,0-.38.9,5,5,0,0,0,.11,1,4.59,4.59,0,0,0,.17.48,1.07,1.07,0,0,0,.65.59,1.72,1.72,0,0,0,1,.28,4.3,4.3,0,0,0,1.39-.13,5.69,5.69,0,0,0,1.52-.46l1-.51a6,6,0,0,0,1.45-1.21l.42-.64a1.44,1.44,0,0,0,.09-1.19"/>
      <path class="cls-1" d="M49.15,150.68a1.4,1.4,0,0,0,.72,1.48l1.36,1.07c.77.61,1.55,1.21,2.34,1.81L58.69,159c3.4,2.6,6.74,5.57,10.54,7.57.57.29,1.8-.19,2.26-.4a10.68,10.68,0,0,0,2.37-1.56c.65-.55,3-2.69,2-3.72-2.92-3.06-6.77-5.37-10.18-7.85l-5.24-3.82c-.8-.59-1.62-1.16-2.44-1.74l-1.22-.87a2.65,2.65,0,0,0-2.12-.58,6.69,6.69,0,0,0-3.59,1.8c-.82.71-1.88,1.73-1.91,2.9"/>
      <path class="cls-4" d="M9.62,179.82c12.88,8.67,29.31,3.35,43.61,5.87A50.78,50.78,0,0,1,68.43,191,72.6,72.6,0,0,0,53,189.49c-1,0-4.1.07-4.12,1.57s3.21,1.68,4.06,1.71c6.59.25,12.6.69,18.6,3.68a82,82,0,0,1,15.78,10.39,2,2,0,0,0,.53.25c1.47,1.61,4.4,1.7,6.4,1.51.75-.07,3.86-.62,4-1.86l.44-.86a2.55,2.55,0,0,0,.89-.62,48.07,48.07,0,0,1,28.29-15.61c1-.16,2.25-.76,1.56-1.84s-3.41-1.09-4.4-.95a54.18,54.18,0,0,0-18.12,5.85c.48-.51,1-1,1.53-1.48,5.49-4.88,12.92-6.35,20-7.56,7.48-1.29,15.07-2,22.44-3.84,6.77-1.67,14-4,19.21-8.9,1.14-1.07-2-2-2.4-2a7.88,7.88,0,0,0-5.28.6,61.85,61.85,0,0,1-20.82,8c-7.77,1.49-15.68,2.14-23.4,3.87-6.94,1.56-13.61,3.76-18.89,8.69a34,34,0,0,0-7,9.24c-8.36-8.16-19.61-13.8-30.65-16.46-7.58-1.82-15.21-2.1-23-1.87s-15.31.45-22.52-3a7.91,7.91,0,0,0-5.32-.23c-.88.28-2.45,1.16-1.09,2.08"/>
      <path class="cls-1" d="M177.31,180a8.63,8.63,0,0,0-6-.11c-11,3.82-21.63,8.84-32.32,13.38-5.22,2.21-10.43,4.44-15.65,6.64s-10.41,4.11-15.45,6.48a3.66,3.66,0,0,0-2.36,1c-3.21,4.33-7.65,8.88-13.4,9.25-5,.32-9.38-3.58-11.81-7.53l0-.05c-.5-1-2.71-1.43-3.47-1.52C52.24,204.6,31.07,189.17,6,188.26c-.89,0-3.38.06-3.68,1.23a.77.77,0,0,0,.09.62.89.89,0,0,0-.09.57C2.73,193.35,4.73,196,6,198.4c1.39,2.72,2.81,5.44,4.18,8.18q4.18,8.38,8.06,16.93c2.53,5.54,5,11.12,7.48,16.67s4.76,11.45,7.82,16.76c-.07.77,1.21,1.3,2,1.57,7.92,2.6,16.12,4.39,24.24,6.26,4.33,1,8.67,2,13,3,4.13,1,8.25,2.17,12.42,2.95,6.75,4.38,18.91,4.55,24.29-2.13,9.12-3.14,18.12-6.61,27.07-10.22q6.94-2.79,13.83-5.75,3.26-1.4,6.49-2.83a50.25,50.25,0,0,0,5-2.2,2.46,2.46,0,0,0,1.75-1c2-4.85,2.93-10.43,4.23-15.53,1.41-5.5,2.72-11,4-16.56,1.26-5.37,2.49-10.74,3.6-16.14s2.57-11.13,2.89-16.74c0,0,0,0,0,0,.25-.52-.08-1.09-1-1.54M64.17,261.87c-7.62-1.76-15.2-3.62-22.71-5.8-1.86-5.55-4.68-10.9-7.06-16.24-2.49-5.58-5.08-11.13-7.7-16.65s-5.16-10.74-7.84-16.05c-1.38-2.74-2.77-5.48-4.22-8.18a66.12,66.12,0,0,0-3.74-6.81c21,4.19,40,15.83,61.32,18.9q3.54,27.41,8.38,54.64c-1.17-.26-2.33-.52-3.47-.79-4.31-1-8.64-2-13-3m27.31,7a5.06,5.06,0,0,0-2.08-.78l-.42-.16q-3.45-25.19-8.06-50.21A26.65,26.65,0,0,0,92.48,220a27.38,27.38,0,0,0,14.33-4.4c-2.32,17-3.45,34.31-4.65,51.43a1.14,1.14,0,0,0,0,.33c-3.32,2.83-6.77,4.29-10.73,1.46M167,197.66c-1.24,5.39-2.49,10.77-3.82,16.14-1.29,5.21-2.65,10.4-4,15.59-.72,2.75-1.42,5.51-2.13,8.26a69.82,69.82,0,0,0-1.9,7.67c-3.5,1.3-6.91,3.16-10.29,4.63q-7,3-14.11,5.94Q120.62,260,110.44,264c1.63-18.67,3.86-37.32,5-56,10-3.5,19.79-8.07,29.54-12.18,8.12-3.43,16.39-6.6,24.52-10-.95,3.94-1.65,8-2.55,11.9"/>
      <path class="cls-2" d="M87.43,41.92C84,37.39,79.8,33.49,76.34,29q-2.57-3.34-4.87-6.88c-1.57-2.4-2.85-5.29-5-7.2-1.13-1-7.73-1.71-7.75.7s2.28,5.33,3.51,7.35q2.28,3.73,4.85,7.27c3.37,4.63,7.11,9.49,11.67,13,1.5,1.16,4.16,1.17,5.91.88.74-.12,3.81-.81,2.78-2.19"/>
      <path class="cls-2" d="M84.62,20.84a4.26,4.26,0,0,0,2.48-2.07c1-2.22-.26-4.31-2.4-5.19a8.55,8.55,0,0,0-6.14-.11,3.79,3.79,0,0,0-.8.41,3.25,3.25,0,0,0-2.17,2.25,3.81,3.81,0,0,0,.88,3.08c1.88,2.25,5.51,2.67,8.15,1.63"/>
      <path class="cls-2" d="M66.71,39.21a11.24,11.24,0,0,0-6.87-.49c-.57.17-1.78.46-2,1.13a3.77,3.77,0,0,0-1.33,1.57,3,3,0,0,0,.33,3c.94,1.27,2.71,1.74,4.19,1.94a11.74,11.74,0,0,0,5.61-.48c1.9-.71,3.68-2.41,2.69-4.56a4.66,4.66,0,0,0-2.58-2.09"/>
      <path class="cls-2" d="M139.72,126.89c-2.91-2.51-6.05-4.74-8.93-7.3l-.33-.29c1.82-2.52,4.07-4.45,6.06-6.89.86-1-1.38-1.82-2-2a8.28,8.28,0,0,0-5.23.18,20.56,20.56,0,0,0-4.6,3.08,12.16,12.16,0,0,0-2.64-2.22,8.3,8.3,0,0,0-4.88-.89c-.69.07-3.42.45-3.21,1.62.33,1.82,2,3.12,3.24,4.43.85.9,1.72,1.78,2.6,2.65l-.13.2c-2.06,3.1-4.72,7.84-3.45,11.58.41,1.19,3.37,1.37,4.28,1.39,1.31,0,3.48-.06,4.33-1.23,1.13-1.55,1.44-3.24,2.05-5,0-.13.09-.25.14-.37a42.88,42.88,0,0,0,4.06,2.91,9.42,9.42,0,0,0,6.76.83c1.35-.3,3.47-1.26,1.83-2.68"/>
      <path class="cls-4" d="M46.21,134c-1.89-5.48-5.82-10.76-9.38-15.41,1.46-.34,2.93-.63,4.43-.9,1.12-.21,2.89-1,1.9-2.24s-3.94-1.22-5.35-1.15a37.19,37.19,0,0,0-4.06.4c-1.27-1.53-2.57-3-3.92-4.49-2.15-2.32-4.08-4.59-7.27-5.33s-7.85-.56-9.68,2.58c-1.5,2.58-2.26,6-2.85,8.93-1.24,6.09-1.81,13.59.82,19.39.87,1.93,8.78,2.21,8.9-.32.12-2.83-.12-5.61-.23-8.41,2.92-1.92,5.62-4.08,8.82-5.62,3.05,4.35,5.43,9.09,8.45,13.44,1.38,2,10.5,2.28,9.42-.87m-26.3-14.68a47.4,47.4,0,0,1,1.19-5.38c.11-.37.23-.74.34-1.12.37.42.76.83,1.12,1.26.84,1,1.65,2,2.46,3-1,.37-1.94.76-2.89,1.19-.74.35-1.48.71-2.22,1.09"/>
      <path class="cls-3" d="M165.81,73a16.15,16.15,0,0,0-3.12-2.08c3.5-1,6.42-2.94,7.52-6.71,1-3.39-1-7-3.58-9a17.66,17.66,0,0,0-7.9-3.29,1.29,1.29,0,0,0,.16-.4c0-.1.05-.2.07-.3.23-.92-1.45-1.51-2-1.74-2.56-1.07-7.05-1.25-8.47,1.65-1.67,3.41-2.64,7.41-3.72,11s-2.08,7.48-2.92,11.27c-.78,3.53-2.18,7.9-1.55,11.5.23,1.36,1.9,1.9,3.21,2.16A49.8,49.8,0,0,0,156,89.89c4.48.25,10.11-1.06,12.57-5.23s.6-8.75-2.77-11.65m-5.44-9c-1.5,2.87-4.16,3.63-7,3.71.58-2.45,1.2-4.88,1.89-7.3q.66-2.31,1.38-4.62c.05-.14.1-.28.14-.43A6.4,6.4,0,0,1,160.37,64m-1,19c-2.45,3.81-5.84,2.88-9.35,1.8a52.09,52.09,0,0,0,1.3-6.92q.49-3,1.11-5.95A10.33,10.33,0,0,1,158,74.54c2.16,2.18,3.22,5.69,1.46,8.43"/>
      <path class="cls-1" d="M119.83,16.89c-.75-2.79-.36-6.21,2.1-7.72a5.62,5.62,0,0,1,4.9-.31,6.17,6.17,0,0,1,2.64,1.89,4.11,4.11,0,0,0,2.41,1.83,3.46,3.46,0,0,0,1.72-.35,13,13,0,0,0,4.8-3.51,1.52,1.52,0,0,0,.47-1A1.53,1.53,0,0,0,138.5,7c-3.06-4-7.73-7-12.74-6.95a15.88,15.88,0,0,0-8,2.51,15.88,15.88,0,0,0-7.19,8.74,16.58,16.58,0,0,0,.28,9.23,38,38,0,0,0,2.5,6.17,39.57,39.57,0,0,0,3,5.49,13.46,13.46,0,0,0,7,5.26,16,16,0,0,0,7.83.24,17.13,17.13,0,0,0,7.48-3.17,14,14,0,0,0,4.5-7.08,22.67,22.67,0,0,0,.59-8.45,1.18,1.18,0,0,0-1.21-1.24,11.8,11.8,0,0,0-4.3.53c-1.06.33-2.79.9-3.36,1.94a3.79,3.79,0,0,0-.07,2.36,7.5,7.5,0,0,1-.59,4.26A5.44,5.44,0,0,1,131,29.61a5.54,5.54,0,0,1-4.28-.54c-1.92-1.07-3-2.93-3.92-4.82A40.26,40.26,0,0,1,120,17.33C119.91,17.18,119.87,17,119.83,16.89Z"/>
      </g>
    </g>
  </svg>