<svg xmlns="http://www.w3.org/2000/svg" viewBox="0 0 1080 1080"><defs><style>.cls-1{fill:none;}.cls-2{fill:#ed3e37;}.cls-3{fill:#273444;}.cls-4{fill:#383838;}</style></defs><title>pp_creative</title><g id="Layer_2" data-name="Layer 2"><g id="Layer_1-2" data-name="Layer 1"><rect class="cls-1" width="1080" height="1080"/><circle class="cls-2" cx="540" cy="540" r="490.01"/><path class="cls-3" d="M735.21,243.32C683,194.25,613.69,167.23,540,167.23s-143,27-195.21,76.09c-52.46,49.31-81.35,115-81.35,184.85,0,107.77,70.1,204.05,175.66,243v24.59a49.94,49.94,0,0,0-11.82,77.42,50,50,0,0,0,36.63,84H616.09a50,50,0,0,0,36.63-84,49.94,49.94,0,0,0-8.87-75.6V670.09c48.45-18.49,90.06-49.34,120.84-89.73,33.94-44.53,51.87-97.16,51.87-152.19C816.56,358.28,787.67,292.63,735.21,243.32ZM616.09,721.18a18,18,0,1,1,0,36H463.91a18,18,0,1,1,0-36Zm0,104.06H463.91a18,18,0,1,1,0-36H616.09a18,18,0,1,1,0,36ZM739.24,561c-29.1,38.18-69.25,66.73-116.12,82.59a16,16,0,0,0-11.27,15.28v30.35H593V546.42l84.75-88.55a16,16,0,1,0-23.11-22.13L561,533.58v155.6H519V533.49L424.83,437a16,16,0,1,0-22.9,22.35L487,546.51V689.18H471.1V659.81a16,16,0,0,0-11.41-15.33c-98.26-32-164.25-118.85-164.25-216.31,0-61,25.31-118.33,71.27-161.54C413,223.17,474.49,199.23,540,199.23s127,23.94,173.29,67.4c46,43.21,71.27,100.58,71.27,161.54C784.56,476.13,768.89,522.05,739.24,561Z"/><path class="cls-4" d="M540,132.37a16,16,0,0,1-16-16V50a16,16,0,0,1,32,0v66.38A16,16,0,0,1,540,132.37Z"/><path class="cls-4" d="M823.1,243.87a16,16,0,0,1-5.37-31.07L911,179.56a16,16,0,1,1,10.75,30.14l-93.28,33.24A16,16,0,0,1,823.1,243.87Z"/><path class="cls-4" d="M171.27,444.17H88.72a16,16,0,1,1,0-32h82.55a16,16,0,1,1,0,32Z"/><path class="cls-4" d="M991.42,444.17H908.87a16,16,0,0,1,0-32h82.55a16,16,0,0,1,0,32Z"/><path class="cls-4" d="M245.24,250.3a16,16,0,0,1-7.22-1.72l-86.84-44a16,16,0,1,1,14.46-28.55l86.83,44a16,16,0,0,1-7.23,30.28Z"/><path class="cls-4" d="M161.64,714.52A16,16,0,0,1,154.91,684l85.76-39.68a16,16,0,0,1,13.44,29.05L168.34,713A15.87,15.87,0,0,1,161.64,714.52Z"/><path class="cls-4" d="M919.58,722.42a15.9,15.9,0,0,1-7.6-1.93l-87.92-47.58a16,16,0,0,1,15.24-28.15l87.91,47.58a16,16,0,0,1-7.63,30.08Z"/><path class="cls-3" d="M16,1048a16,16,0,0,0,0,32H1064a16,16,0,0,0,0-32H615c8.57-38.66,51.61-69.59,51.61-69.59,32.23-20.68,78.55-37.15,137.66-48.94C901.85,910,1010,908.05,1064.06,907.86a16,16,0,0,0-.11-32c-55,.2-165.46,2.18-266,22.23-63.06,12.57-113.08,30.54-148.7,53.39-39.51,25.35-62.23,57-67.75,94.22a16.25,16.25,0,0,0-.15,2.3H498.62a16.25,16.25,0,0,0-.15-2.3c-5.52-37.24-28.24-68.87-67.75-94.22-35.62-22.85-85.64-40.82-148.7-53.39-100.51-20.05-211-22-266-22.23a16,16,0,0,0-.11,32c54,.19,162.21,2.14,259.83,21.61,59.11,11.79,105.43,28.26,137.66,48.94,20.66,13.25,49.72,45.9,52.61,69.59"/><path class="cls-3" d="M613.71,1047.37c.08.21.16.42.25.63h-.37Z"/><path class="cls-3" d="M466.41,1048H466c.09-.21.17-.42.25-.63Z"/><path class="cls-3" d="M398.44,1018.77a16.08,16.08,0,0,1-20.52,3.78c-23.92-13.59-62-22.39-115.75-26.79-57.64-4.73-123.75-3.67-187.68-2.64-20.26.32-39.65.63-58.38.75A16,16,0,0,1,0,977.87H0a16,16,0,0,1,15.9-16c18.59-.12,37.9-.43,58.08-.75,64.7-1,131.6-2.11,190.81,2.74s100.86,14.82,129.25,31a16,16,0,0,1,4.4,23.87Z"/><path class="cls-3" d="M681.56,1018.77a16.08,16.08,0,0,0,20.52,3.78c23.92-13.59,62-22.39,115.75-26.79,57.64-4.73,123.75-3.67,187.68-2.64,20.26.32,39.65.63,58.38.75a16,16,0,0,0,16.11-16h0a16,16,0,0,0-15.9-16c-18.59-.12-37.9-.43-58.08-.75-64.7-1-131.6-2.11-190.81,2.74S714.35,978.68,686,994.9a16,16,0,0,0-4.4,23.87Z"/></g></g></svg>