<svg xmlns="http://www.w3.org/2000/svg" viewBox="0 0 1080 1080"><defs><style>.cls-1{fill:none;}.cls-2{fill:#16a9a9;}.cls-3{fill:#273444;}</style></defs><title>pp_fun</title><g id="Layer_2" data-name="Layer 2"><g id="Layer_1-2" data-name="Layer 1"><rect class="cls-1" width="1080" height="1080"/><circle class="cls-2" cx="540" cy="540" r="490.01"/><circle class="cls-3" cx="518.72" cy="522.1" r="22.77" transform="translate(-76.93 89.83) rotate(-9.22)"/><circle class="cls-3" cx="587.88" cy="657.57" r="24.24" transform="translate(-97.74 102.66) rotate(-9.22)"/><path class="cls-3" d="M632.47,940.54a17,17,0,0,0-23.71,4,80.35,80.35,0,0,1-132.11-1.64,17,17,0,1,0-28.17,19,114.35,114.35,0,0,0,188,2.34A17,17,0,0,0,632.47,940.54Z"/><path class="cls-3" d="M462.57,884.05a17,17,0,0,0,17-17,56,56,0,1,0-111.92,0,17,17,0,0,0,34,0,22,22,0,1,1,43.92,0A17,17,0,0,0,462.57,884.05Z"/><path class="cls-3" d="M665.56,811.09a56,56,0,0,0-56,56,17,17,0,0,0,34,0,22,22,0,0,1,43.92,0,17,17,0,0,0,34,0A56,56,0,0,0,665.56,811.09Z"/><path class="cls-3" d="M875.8,958.25,660,592.17V463.31a68.18,68.18,0,0,0-34.59-126.94H568.66l-1.17-1.21L589,312.94a302.63,302.63,0,0,0,61.88,6.61c68,0,127.59-25.28,169.3-73.31.7-.81,1.4-1.64,2.1-2.46l.14-.16a214.94,214.94,0,0,0,47-102.36A221.49,221.49,0,0,0,857.11,23.1l-2.55-6.47-6.36-2.85C816.24-.48,776.77-3.79,736.8,4.4a17.67,17.67,0,0,0-1.92.4l-.51.1A243,243,0,0,0,624.83,61c-30.63,27.59-52.48,62.28-63.2,100.34-11.33,40.21-10.47,83.31,2.51,128.27l-20.38,21-20.37-21c13-45,13.83-88.06,2.51-128.27C515.18,123.27,493.32,88.58,462.7,61A243.11,243.11,0,0,0,353.16,4.9l-.52-.1a17,17,0,0,0-1.91-.4c-40-8.19-79.45-4.88-111.4,9.38L233,16.63l-2.55,6.47a221.4,221.4,0,0,0-12.35,118.16,214.85,214.85,0,0,0,47,102.36l.14.16c.7.82,1.39,1.65,2.1,2.46,41.71,48,101.28,73.31,169.3,73.31a302.63,302.63,0,0,0,61.88-6.61L520,335.16l-1.17,1.21h-66a68.2,68.2,0,0,0-34.6,127V592.21L204.11,958.41A81.86,81.86,0,0,0,275.67,1080H804.33A81.86,81.86,0,0,0,875.8,958.25Zm-165.06-681c-28.58,8.44-59.77,10.44-93,6l54.25-56,101.65,16.84A178.63,178.63,0,0,1,710.74,277.23ZM767.08,129,757.86,35.4c24.73-3.12,48.92-1,70,6.88a187.17,187.17,0,0,1,8,93.28,181.32,181.32,0,0,1-33.63,78.7L700.79,197.45ZM594.45,170.58c9-31.85,27.37-61,53.2-84.25a208.36,208.36,0,0,1,76.67-43.58l7.28,73.84-78,80.62-.05,0-61.4,63.43C585.73,229,586.49,198.82,594.45,170.58Zm-342.77-35a187.29,187.29,0,0,1,8-93.28c21.08-7.91,45.28-10,70-6.88L320.44,129l66.3,68.49L285.32,214.26A181.34,181.34,0,0,1,251.68,135.56ZM376.79,277.23a178.63,178.63,0,0,1-62.87-33.15l101.65-16.84,54.25,56C436.56,287.67,405.37,285.67,376.79,277.23ZM495.4,260.69,434,197.26l-.05,0-78-80.62,7.28-73.84a208.43,208.43,0,0,1,76.67,43.58c25.83,23.26,44.23,52.4,53.2,84.25C501,198.82,501.8,229,495.4,260.69ZM452.88,370.47h172.5a34.1,34.1,0,0,1,0,68.19H520.19a17.05,17.05,0,0,0,0,34.1H625.88v128.3l77.55,131.68c-91.66-4.38-127.81-25.74-162.9-46.47-30.16-17.83-58.88-34.79-115.18-39l27-46.27V440.7l-11.2-4.09a34.11,34.11,0,0,1,11.7-66.14Zm392.63,651.86a47.31,47.31,0,0,1-41.18,23.57H275.67a47.75,47.75,0,0,1-41.74-71l172-294.43c60.05,1.33,86.67,17,117.25,35.1C562.75,739,607.4,765.37,723.9,767.51L846,974.88A47.31,47.31,0,0,1,845.51,1022.33Z"/></g></g></svg>