<svg xmlns="http://www.w3.org/2000/svg" viewBox="0 0 1080 1080"><defs><style>.cls-1{fill:none;}.cls-2{fill:#f9a02d;}.cls-3{fill:#273444;}</style></defs><title>pp_motivate</title><g id="Layer_2" data-name="Layer 2"><g id="Layer_1-2" data-name="Layer 1"><rect class="cls-1" width="1080" height="1080"/><circle class="cls-2" cx="540" cy="540" r="490.01"/><path class="cls-3" d="M965.94,324l94.74-94.73a66.06,66.06,0,0,0-93.43-93.43l-1.31,1.31-1.31-1.31a66.06,66.06,0,1,0-93.43,93.43Zm-70.7-164.12a32.1,32.1,0,0,1,45.35,0l25.35,25.35,25.36-25.35a32.06,32.06,0,1,1,45.34,45.34l-70.7,70.7-70.69-70.7A32.09,32.09,0,0,1,895.24,159.85Z"/><path class="cls-3" d="M114.06,207.49l94.74-94.74a66.06,66.06,0,0,0-93.43-93.43l-1.31,1.31-1.31-1.31a66.06,66.06,0,0,0-93.43,93.43ZM43.36,43.36a32.08,32.08,0,0,1,45.34,0l25.36,25.35,25.35-25.35a32.07,32.07,0,0,1,45.35,45.35l-70.7,70.69L43.36,88.71A32.11,32.11,0,0,1,43.36,43.36Z"/><circle class="cls-3" cx="549.43" cy="275.89" r="16"/><path class="cls-3" d="M977.38,719.49c-14.1-13.23-9.65-51.15-5.34-87.82,3.58-30.45,7.27-61.94,2.92-90.31-1.14-7.36-4.14-26.93-84.77-155.4-39.05-62.22-77.9-120.59-78.29-121.18l-.56-.8a86.72,86.72,0,0,0-156,54.88c.61,19.05,14.81,44.54,17.65,49.46l.45.78,30.18,41.38-82.07-91a17,17,0,1,0-25.24,22.78L696.67,453.53l.67.7a41.12,41.12,0,0,0,28.6,11.95l9.46.11a25.78,25.78,0,0,0,21.12-41L702,350.55c-5.13-9.05-12.43-25.16-12.68-32.78a52.72,52.72,0,0,1,94.57-33.71c3.62,5.44,40.46,61,77.5,120,71.34,113.67,79.24,137.8,80,142.49,3.66,23.81.23,53-3.08,81.17-5.53,47.12-10.76,91.62,15.85,116.58l28.54,26.78a17,17,0,0,0,23.27-24.79Z"/><path class="cls-3" d="M744.61,962.5c-45.44-42.62-98.77-48.59-150.34-54.36-14.87-1.66-30-3.36-45.21-5.93,9.23-6.33,17.39-12,23.75-16.44v0l14.11-9.94a62.84,62.84,0,0,0-56.18-111l87.76-83.23A60,60,0,0,0,598.35,582a60,60,0,0,0-76.54-90.54A59.94,59.94,0,0,0,423.07,465l-4.94,4.69L291.54,344.41l0,0-44.38-43.9a48.37,48.37,0,0,1,33.76-82.75h.27a48.05,48.05,0,0,1,34,14l52.32,51.75h0L521.77,436.11c.42.41.85.79,1.29,1.15.17.14.35.25.53.38s.56.43.85.62.43.25.65.38.53.33.8.47.46.21.7.32.53.26.8.37l.72.25c.28.09.55.2.84.29s.48.11.72.17l.87.21.73.1a8.85,8.85,0,0,0,.88.12c.25,0,.49,0,.74,0s.56,0,.84,0h0c.29,0,.57,0,.86,0s.52,0,.78-.05.57-.08.86-.12.51-.06.76-.11.58-.15.87-.22.49-.11.73-.18.59-.21.89-.31.45-.15.67-.24.61-.28.91-.43l.6-.28c.32-.17.64-.38,1-.57l.49-.29c.35-.24.68-.5,1-.76.11-.09.24-.17.35-.27a15.83,15.83,0,0,0,1.29-1.17,17,17,0,0,0-.13-24.05L391.38,259.29a48.37,48.37,0,0,1,67.72-69.07l31,34.35a17,17,0,0,0,25.25-22.78L484,167.06l-.67-.7a81.79,81.79,0,0,0-57.91-23.81H425a82.38,82.38,0,0,0-81,69.86l-4.92-4.86a81.79,81.79,0,0,0-57.91-23.81h-.46a82.37,82.37,0,0,0-60.31,138,82.28,82.28,0,0,0-46,138.49c-13.87,3-27.19,10.24-38.7,21.86a82.36,82.36,0,0,0,.54,116.39l10.48,10.69c-38,41-44.21,83.62-49.69,121.58-4.6,31.87-8.57,59.39-30.9,81.72L18.89,859.71a17,17,0,1,0,24,24l47.26-47.27c30.33-30.32,35.51-66.2,40.52-100.9,5.58-38.69,10.86-75.23,48.31-110.75l93.62-88.78c.29-.26.59-.52.87-.81l.12-.13,33.68-31.94A26,26,0,1,1,343,540.84L318,564.61a17,17,0,0,0,22.07,25.81,15.74,15.74,0,0,0,1.32-1.13l105.09-99.67a26,26,0,1,1,35.73,37.68L378.11,626a17,17,0,0,0-.64,24c.41.43.84.83,1.29,1.22l.46.35c.3.24.6.49.91.71s.39.24.58.36.58.37.88.54.43.21.64.32.58.29.88.42.46.18.69.26.58.23.88.32.48.14.73.2.59.16.88.22.5.09.75.13l.9.14.76,0,.89.05h.22l.63,0,.74,0c.29,0,.58-.06.87-.1l.72-.1c.3,0,.58-.12.87-.19l.71-.16c.29-.08.58-.18.87-.28s.45-.14.67-.23.59-.25.88-.38.41-.17.61-.27.61-.33.91-.51l.54-.3c.34-.22.67-.46,1-.7l.37-.26a17.23,17.23,0,0,0,1.31-1.12L505.58,552h0l29.78-28.24a26,26,0,1,1,35.72,37.67L432.5,692.82a17,17,0,0,0-.63,24,16.26,16.26,0,0,0,1.28,1.22l.4.31c.32.26.64.52,1,.75.18.13.36.23.55.35s.59.38.9.55.42.21.63.32.59.3.89.42l.69.27.88.32.72.19c.3.08.6.17.9.23l.74.13c.3.05.6.1.9.13s.5,0,.76.06.6,0,.9,0h.22l.62,0,.75,0c.28,0,.57-.06.85-.1l.74-.1c.29,0,.57-.12.85-.19s.48-.1.72-.17.57-.18.85-.27l.69-.23c.29-.11.57-.24.85-.37s.44-.18.65-.29.58-.32.86-.48.39-.21.58-.33.62-.42.92-.64.31-.2.46-.32c.45-.35.88-.72,1.3-1.11l103.5-98.15A26,26,0,1,1,595.12,657L457,788a32.78,32.78,0,0,0-10.26,22.51l-.27,6.21A22.76,22.76,0,0,0,482,836.52l54.14-36.88a28.49,28.49,0,0,1,14.64-4,28.82,28.82,0,0,1,17.36,51.82l-.87.62c-.35.25-35.28,25-73.13,50.2-69.88,46.44-85.53,51.58-88.13,52.15-14.9,1.76-33.51-1-51.51-3.73-32.33-4.85-62.87-9.43-81.9,9.61l-83.49,83.48a17,17,0,1,0,24,24l83.49-83.49c6.91-6.91,32.36-3.09,52.81,0s41.32,6.2,60.82,3.84c6.29-.76,19.35-2.35,99.74-55.61,27.63,7.44,54.44,10.46,80.44,13.37,50.27,5.62,93.68,10.48,130.87,45.37l74.18,69.59a17,17,0,0,0,23.26-24.8Zm-573.48-377-10.68-10.9-.19-.19a48.36,48.36,0,0,1-.36-68.4c18.1-18.3,41.49-17.68,61,1.64l15.91,15.55Zm211.14-81.83a60,60,0,0,0-98.35-25.13l-21.81,20.68-62.52-61.84a48.36,48.36,0,0,1,68-68.78L393.44,493.05Z"/><path class="cls-3" d="M753.55,585.75a16,16,0,0,0-15.54-28c-19.59,10.88-32.92,31.12-37.53,57-5.72,32,3.14,66.36,23.13,89.59a16,16,0,0,0,24.26-20.87c-13.66-15.88-19.9-40.64-15.89-63.1C734.87,604.17,742.53,591.87,753.55,585.75Z"/><circle class="cls-3" cx="1056.98" cy="821.17" r="16" transform="translate(-117.89 179.91) rotate(-9.22)"/></g></g></svg>