<svg viewBox="0 0 40 34" fill="none" xmlns="http://www.w3.org/2000/svg">
  <path d="M15.2727 34H0V25.5758C0 20.2828 0.646465 15.7172 1.93939 11.8788C3.27273 8 5.49495 4.0404 8.60606 0L14.5455 4.66667C13.0505 6.84848 11.9394 8.72727 11.2121 10.303C10.5253 11.8788 9.83838 13.9798 9.15152 16.6061H15.2727V34ZM40 34H24.7273V25.5758C24.7273 20.2828 25.3737 15.7172 26.6667 11.8788C27.9596 8 30.1818 4.0404 33.3333 0L39.2727 4.66667C37.7778 6.84848 36.6667 8.72727 35.9394 10.303C35.2525 11.8788 34.5657 13.9798 33.8788 16.6061H40V34Z" fill="#F9A02D"/>
</svg>
